%TF.GenerationSoftware,KiCad,Pcbnew,8.0.0*%
%TF.CreationDate,2024-10-15T00:42:55+02:00*%
%TF.ProjectId,reDOT_RGB,7265444f-545f-4524-9742-2e6b69636164,rev?*%
%TF.SameCoordinates,Original*%
%TF.FileFunction,Copper,L1,Top*%
%TF.FilePolarity,Positive*%
%FSLAX46Y46*%
G04 Gerber Fmt 4.6, Leading zero omitted, Abs format (unit mm)*
G04 Created by KiCad (PCBNEW 8.0.0) date 2024-10-15 00:42:55*
%MOMM*%
%LPD*%
G01*
G04 APERTURE LIST*
G04 Aperture macros list*
%AMRoundRect*
0 Rectangle with rounded corners*
0 $1 Rounding radius*
0 $2 $3 $4 $5 $6 $7 $8 $9 X,Y pos of 4 corners*
0 Add a 4 corners polygon primitive as box body*
4,1,4,$2,$3,$4,$5,$6,$7,$8,$9,$2,$3,0*
0 Add four circle primitives for the rounded corners*
1,1,$1+$1,$2,$3*
1,1,$1+$1,$4,$5*
1,1,$1+$1,$6,$7*
1,1,$1+$1,$8,$9*
0 Add four rect primitives between the rounded corners*
20,1,$1+$1,$2,$3,$4,$5,0*
20,1,$1+$1,$4,$5,$6,$7,0*
20,1,$1+$1,$6,$7,$8,$9,0*
20,1,$1+$1,$8,$9,$2,$3,0*%
G04 Aperture macros list end*
%TA.AperFunction,SMDPad,CuDef*%
%ADD10RoundRect,0.112500X0.112500X0.112500X-0.112500X0.112500X-0.112500X-0.112500X0.112500X-0.112500X0*%
%TD*%
%TA.AperFunction,SMDPad,CuDef*%
%ADD11RoundRect,0.112500X0.112500X-0.112500X0.112500X0.112500X-0.112500X0.112500X-0.112500X-0.112500X0*%
%TD*%
%TA.AperFunction,SMDPad,CuDef*%
%ADD12RoundRect,0.112500X-0.112500X0.112500X-0.112500X-0.112500X0.112500X-0.112500X0.112500X0.112500X0*%
%TD*%
%TA.AperFunction,SMDPad,CuDef*%
%ADD13RoundRect,0.112500X-0.112500X-0.112500X0.112500X-0.112500X0.112500X0.112500X-0.112500X0.112500X0*%
%TD*%
%TA.AperFunction,ViaPad*%
%ADD14C,0.400000*%
%TD*%
%TA.AperFunction,Conductor*%
%ADD15C,0.125000*%
%TD*%
G04 APERTURE END LIST*
D10*
%TO.P,D5,1,DOUT*%
%TO.N,Net-(D5-DOUT)*%
X3425000Y4075000D03*
%TO.P,D5,2,VDD*%
%TO.N,VCC*%
X2575000Y4075000D03*
%TO.P,D5,3,GND*%
%TO.N,GND*%
X3425000Y4925000D03*
%TO.P,D5,4,DIN*%
%TO.N,Net-(D4-DOUT)*%
X2575000Y4925000D03*
%TD*%
D11*
%TO.P,D10,1,DOUT*%
%TO.N,Net-(D10-DOUT)*%
X-3425000Y2575000D03*
%TO.P,D10,2,VDD*%
%TO.N,VCC*%
X-3425000Y3425000D03*
%TO.P,D10,3,GND*%
%TO.N,GND*%
X-2575000Y2575000D03*
%TO.P,D10,4,DIN*%
%TO.N,Net-(D10-DIN)*%
X-2575000Y3425000D03*
%TD*%
%TO.P,D6,1,DOUT*%
%TO.N,Net-(D6-DOUT)*%
X2575000Y2575000D03*
%TO.P,D6,2,VDD*%
%TO.N,VCC*%
X2575000Y3425000D03*
%TO.P,D6,3,GND*%
%TO.N,GND*%
X3425000Y2575000D03*
%TO.P,D6,4,DIN*%
%TO.N,Net-(D5-DOUT)*%
X3425000Y3425000D03*
%TD*%
D12*
%TO.P,D12,1,DOUT*%
%TO.N,Net-(D12-DOUT)*%
X-1075000Y1925000D03*
%TO.P,D12,2,VDD*%
%TO.N,VCC*%
X-1075000Y1075000D03*
%TO.P,D12,3,GND*%
%TO.N,GND*%
X-1925000Y1925000D03*
%TO.P,D12,4,DIN*%
%TO.N,Net-(D11-DOUT)*%
X-1925000Y1075000D03*
%TD*%
%TO.P,D2,1,DOUT*%
%TO.N,Net-(D2-DOUT)*%
X-1075000Y4925000D03*
%TO.P,D2,2,VDD*%
%TO.N,VCC*%
X-1075000Y4075000D03*
%TO.P,D2,3,GND*%
%TO.N,GND*%
X-1925000Y4925000D03*
%TO.P,D2,4,DIN*%
%TO.N,Net-(D1-DOUT)*%
X-1925000Y4075000D03*
%TD*%
D13*
%TO.P,D7,1,DOUT*%
%TO.N,Net-(D7-DOUT)*%
X1075000Y3425000D03*
%TO.P,D7,2,VDD*%
%TO.N,VCC*%
X1925000Y3425000D03*
%TO.P,D7,3,GND*%
%TO.N,GND*%
X1075000Y2575000D03*
%TO.P,D7,4,DIN*%
%TO.N,Net-(D6-DOUT)*%
X1925000Y2575000D03*
%TD*%
D12*
%TO.P,D22,1,DOUT*%
%TO.N,Net-(D22-DOUT)*%
X-1075000Y-1075000D03*
%TO.P,D22,2,VDD*%
%TO.N,VCC*%
X-1075000Y-1925000D03*
%TO.P,D22,3,GND*%
%TO.N,GND*%
X-1925000Y-1075000D03*
%TO.P,D22,4,DIN*%
%TO.N,Net-(D21-DOUT)*%
X-1925000Y-1925000D03*
%TD*%
D11*
%TO.P,D28,1,DOUT*%
%TO.N,Net-(D28-DOUT)*%
X-425000Y-3425000D03*
%TO.P,D28,2,VDD*%
%TO.N,VCC*%
X-425000Y-2575000D03*
%TO.P,D28,3,GND*%
%TO.N,GND*%
X425000Y-3425000D03*
%TO.P,D28,4,DIN*%
%TO.N,Net-(D27-DOUT)*%
X425000Y-2575000D03*
%TD*%
D10*
%TO.P,D15,1,DOUT*%
%TO.N,Net-(D15-DOUT)*%
X3425000Y1075000D03*
%TO.P,D15,2,VDD*%
%TO.N,VCC*%
X2575000Y1075000D03*
%TO.P,D15,3,GND*%
%TO.N,GND*%
X3425000Y1925000D03*
%TO.P,D15,4,DIN*%
%TO.N,Net-(D14-DOUT)*%
X2575000Y1925000D03*
%TD*%
%TO.P,D31,1,DOUT*%
%TO.N,Net-(D31-DOUT)*%
X-2575000Y-4925000D03*
%TO.P,D31,2,VDD*%
%TO.N,VCC*%
X-3425000Y-4925000D03*
%TO.P,D31,3,GND*%
%TO.N,GND*%
X-2575000Y-4075000D03*
%TO.P,D31,4,DIN*%
%TO.N,Net-(D30-DOUT)*%
X-3425000Y-4075000D03*
%TD*%
D11*
%TO.P,D26,1,DOUT*%
%TO.N,Net-(D26-DOUT)*%
X2575000Y-3425000D03*
%TO.P,D26,2,VDD*%
%TO.N,VCC*%
X2575000Y-2575000D03*
%TO.P,D26,3,GND*%
%TO.N,GND*%
X3425000Y-3425000D03*
%TO.P,D26,4,DIN*%
%TO.N,Net-(D25-DOUT)*%
X3425000Y-2575000D03*
%TD*%
%TO.P,D8,1,DOUT*%
%TO.N,Net-(D8-DOUT)*%
X-425000Y2575000D03*
%TO.P,D8,2,VDD*%
%TO.N,VCC*%
X-425000Y3425000D03*
%TO.P,D8,3,GND*%
%TO.N,GND*%
X425000Y2575000D03*
%TO.P,D8,4,DIN*%
%TO.N,Net-(D7-DOUT)*%
X425000Y3425000D03*
%TD*%
%TO.P,D18,1,DOUT*%
%TO.N,Net-(D18-DOUT)*%
X-425000Y-425000D03*
%TO.P,D18,2,VDD*%
%TO.N,VCC*%
X-425000Y425000D03*
%TO.P,D18,3,GND*%
%TO.N,GND*%
X425000Y-425000D03*
%TO.P,D18,4,DIN*%
%TO.N,Net-(D17-DOUT)*%
X425000Y425000D03*
%TD*%
D12*
%TO.P,D34,1,DOUT*%
%TO.N,Net-(D34-DOUT)*%
X1925000Y-4075000D03*
%TO.P,D34,2,VDD*%
%TO.N,VCC*%
X1925000Y-4925000D03*
%TO.P,D34,3,GND*%
%TO.N,GND*%
X1075000Y-4075000D03*
%TO.P,D34,4,DIN*%
%TO.N,Net-(D33-DOUT)*%
X1075000Y-4925000D03*
%TD*%
D10*
%TO.P,D21,1,DOUT*%
%TO.N,Net-(D21-DOUT)*%
X-2575000Y-1925000D03*
%TO.P,D21,2,VDD*%
%TO.N,VCC*%
X-3425000Y-1925000D03*
%TO.P,D21,3,GND*%
%TO.N,GND*%
X-2575000Y-1075000D03*
%TO.P,D21,4,DIN*%
%TO.N,Net-(D20-DOUT)*%
X-3425000Y-1075000D03*
%TD*%
%TO.P,D25,1,DOUT*%
%TO.N,Net-(D25-DOUT)*%
X3425000Y-1925000D03*
%TO.P,D25,2,VDD*%
%TO.N,VCC*%
X2575000Y-1925000D03*
%TO.P,D25,3,GND*%
%TO.N,GND*%
X3425000Y-1075000D03*
%TO.P,D25,4,DIN*%
%TO.N,Net-(D24-DOUT)*%
X2575000Y-1075000D03*
%TD*%
%TO.P,D33,1,DOUT*%
%TO.N,Net-(D33-DOUT)*%
X425000Y-4925000D03*
%TO.P,D33,2,VDD*%
%TO.N,VCC*%
X-425000Y-4925000D03*
%TO.P,D33,3,GND*%
%TO.N,GND*%
X425000Y-4075000D03*
%TO.P,D33,4,DIN*%
%TO.N,Net-(D32-DOUT)*%
X-425000Y-4075000D03*
%TD*%
%TO.P,D11,1,DOUT*%
%TO.N,Net-(D11-DOUT)*%
X-2575000Y1075000D03*
%TO.P,D11,2,VDD*%
%TO.N,VCC*%
X-3425000Y1075000D03*
%TO.P,D11,3,GND*%
%TO.N,GND*%
X-2575000Y1925000D03*
%TO.P,D11,4,DIN*%
%TO.N,Net-(D10-DOUT)*%
X-3425000Y1925000D03*
%TD*%
D11*
%TO.P,D16,1,DOUT*%
%TO.N,Net-(D16-DOUT)*%
X2575000Y-425000D03*
%TO.P,D16,2,VDD*%
%TO.N,VCC*%
X2575000Y425000D03*
%TO.P,D16,3,GND*%
%TO.N,GND*%
X3425000Y-425000D03*
%TO.P,D16,4,DIN*%
%TO.N,Net-(D15-DOUT)*%
X3425000Y425000D03*
%TD*%
D10*
%TO.P,D3,1,DOUT*%
%TO.N,Net-(D3-DOUT)*%
X425000Y4075000D03*
%TO.P,D3,2,VDD*%
%TO.N,VCC*%
X-425000Y4075000D03*
%TO.P,D3,3,GND*%
%TO.N,GND*%
X425000Y4925000D03*
%TO.P,D3,4,DIN*%
%TO.N,Net-(D2-DOUT)*%
X-425000Y4925000D03*
%TD*%
D13*
%TO.P,D17,1,DOUT*%
%TO.N,Net-(D17-DOUT)*%
X1075000Y425000D03*
%TO.P,D17,2,VDD*%
%TO.N,VCC*%
X1925000Y425000D03*
%TO.P,D17,3,GND*%
%TO.N,GND*%
X1075000Y-425000D03*
%TO.P,D17,4,DIN*%
%TO.N,Net-(D16-DOUT)*%
X1925000Y-425000D03*
%TD*%
%TO.P,D19,1,DOUT*%
%TO.N,Net-(D19-DOUT)*%
X-1925000Y425000D03*
%TO.P,D19,2,VDD*%
%TO.N,VCC*%
X-1075000Y425000D03*
%TO.P,D19,3,GND*%
%TO.N,GND*%
X-1925000Y-425000D03*
%TO.P,D19,4,DIN*%
%TO.N,Net-(D18-DOUT)*%
X-1075000Y-425000D03*
%TD*%
D12*
%TO.P,D24,1,DOUT*%
%TO.N,Net-(D24-DOUT)*%
X1925000Y-1075000D03*
%TO.P,D24,2,VDD*%
%TO.N,VCC*%
X1925000Y-1925000D03*
%TO.P,D24,3,GND*%
%TO.N,GND*%
X1075000Y-1075000D03*
%TO.P,D24,4,DIN*%
%TO.N,Net-(D23-DOUT)*%
X1075000Y-1925000D03*
%TD*%
D10*
%TO.P,D35,1,DOUT*%
%TO.N,/DO*%
X3425000Y-4925000D03*
%TO.P,D35,2,VDD*%
%TO.N,VCC*%
X2575000Y-4925000D03*
%TO.P,D35,3,GND*%
%TO.N,GND*%
X3425000Y-4075000D03*
%TO.P,D35,4,DIN*%
%TO.N,Net-(D34-DOUT)*%
X2575000Y-4075000D03*
%TD*%
D13*
%TO.P,D27,1,DOUT*%
%TO.N,Net-(D27-DOUT)*%
X1075000Y-2575000D03*
%TO.P,D27,2,VDD*%
%TO.N,VCC*%
X1925000Y-2575000D03*
%TO.P,D27,3,GND*%
%TO.N,GND*%
X1075000Y-3425000D03*
%TO.P,D27,4,DIN*%
%TO.N,Net-(D26-DOUT)*%
X1925000Y-3425000D03*
%TD*%
D11*
%TO.P,D30,1,DOUT*%
%TO.N,Net-(D30-DOUT)*%
X-3425000Y-3425000D03*
%TO.P,D30,2,VDD*%
%TO.N,VCC*%
X-3425000Y-2575000D03*
%TO.P,D30,3,GND*%
%TO.N,GND*%
X-2575000Y-3425000D03*
%TO.P,D30,4,DIN*%
%TO.N,Net-(D29-DOUT)*%
X-2575000Y-2575000D03*
%TD*%
D10*
%TO.P,D1,1,DOUT*%
%TO.N,Net-(D1-DOUT)*%
X-2575000Y4075000D03*
%TO.P,D1,2,VDD*%
%TO.N,VCC*%
X-3425000Y4075000D03*
%TO.P,D1,3,GND*%
%TO.N,GND*%
X-2575000Y4925000D03*
%TO.P,D1,4,DIN*%
%TO.N,/DIN*%
X-3425000Y4925000D03*
%TD*%
D13*
%TO.P,D29,1,DOUT*%
%TO.N,Net-(D29-DOUT)*%
X-1925000Y-2575000D03*
%TO.P,D29,2,VDD*%
%TO.N,VCC*%
X-1075000Y-2575000D03*
%TO.P,D29,3,GND*%
%TO.N,GND*%
X-1925000Y-3425000D03*
%TO.P,D29,4,DIN*%
%TO.N,Net-(D28-DOUT)*%
X-1075000Y-3425000D03*
%TD*%
D11*
%TO.P,D20,1,DOUT*%
%TO.N,Net-(D20-DOUT)*%
X-3425000Y-425000D03*
%TO.P,D20,2,VDD*%
%TO.N,VCC*%
X-3425000Y425000D03*
%TO.P,D20,3,GND*%
%TO.N,GND*%
X-2575000Y-425000D03*
%TO.P,D20,4,DIN*%
%TO.N,Net-(D19-DOUT)*%
X-2575000Y425000D03*
%TD*%
D12*
%TO.P,D4,1,DOUT*%
%TO.N,Net-(D4-DOUT)*%
X1925000Y4925000D03*
%TO.P,D4,2,VDD*%
%TO.N,VCC*%
X1925000Y4075000D03*
%TO.P,D4,3,GND*%
%TO.N,GND*%
X1075000Y4925000D03*
%TO.P,D4,4,DIN*%
%TO.N,Net-(D3-DOUT)*%
X1075000Y4075000D03*
%TD*%
%TO.P,D14,1,DOUT*%
%TO.N,Net-(D14-DOUT)*%
X1925000Y1925000D03*
%TO.P,D14,2,VDD*%
%TO.N,VCC*%
X1925000Y1075000D03*
%TO.P,D14,3,GND*%
%TO.N,GND*%
X1075000Y1925000D03*
%TO.P,D14,4,DIN*%
%TO.N,Net-(D13-DOUT)*%
X1075000Y1075000D03*
%TD*%
D13*
%TO.P,D9,1,DOUT*%
%TO.N,Net-(D10-DIN)*%
X-1925000Y3425000D03*
%TO.P,D9,2,VDD*%
%TO.N,VCC*%
X-1075000Y3425000D03*
%TO.P,D9,3,GND*%
%TO.N,GND*%
X-1925000Y2575000D03*
%TO.P,D9,4,DIN*%
%TO.N,Net-(D8-DOUT)*%
X-1075000Y2575000D03*
%TD*%
D10*
%TO.P,D13,1,DOUT*%
%TO.N,Net-(D13-DOUT)*%
X425000Y1075000D03*
%TO.P,D13,2,VDD*%
%TO.N,VCC*%
X-425000Y1075000D03*
%TO.P,D13,3,GND*%
%TO.N,GND*%
X425000Y1925000D03*
%TO.P,D13,4,DIN*%
%TO.N,Net-(D12-DOUT)*%
X-425000Y1925000D03*
%TD*%
D12*
%TO.P,D32,1,DOUT*%
%TO.N,Net-(D32-DOUT)*%
X-1075000Y-4075000D03*
%TO.P,D32,2,VDD*%
%TO.N,VCC*%
X-1075000Y-4925000D03*
%TO.P,D32,3,GND*%
%TO.N,GND*%
X-1925000Y-4075000D03*
%TO.P,D32,4,DIN*%
%TO.N,Net-(D31-DOUT)*%
X-1925000Y-4925000D03*
%TD*%
D10*
%TO.P,D23,1,DOUT*%
%TO.N,Net-(D23-DOUT)*%
X425000Y-1925000D03*
%TO.P,D23,2,VDD*%
%TO.N,VCC*%
X-425000Y-1925000D03*
%TO.P,D23,3,GND*%
%TO.N,GND*%
X425000Y-1075000D03*
%TO.P,D23,4,DIN*%
%TO.N,Net-(D22-DOUT)*%
X-425000Y-1075000D03*
%TD*%
D14*
%TO.N,VCC*%
X-1500000Y3000000D03*
X1500000Y3000000D03*
X-3000000Y3000000D03*
X-1500000Y0D03*
X1500000Y0D03*
%TO.N,GND*%
X0Y-1500000D03*
X1500000Y4500000D03*
X0Y1500000D03*
X3000000Y4500000D03*
X3000000Y3000000D03*
%TO.N,/DIN*%
X-3000000Y4500000D03*
%TO.N,/DO*%
X3000000Y-4500000D03*
%TD*%
D15*
%TO.N,Net-(D1-DOUT)*%
X-1925000Y4075000D02*
X-2575000Y4075000D01*
%TO.N,VCC*%
X2575000Y-2575000D02*
X2575000Y-1925000D01*
X0Y-4500000D02*
X1500000Y-4500000D01*
X1500000Y-3200736D02*
X1500000Y-4500000D01*
X-1500000Y-4500000D02*
X-1100000Y-4500000D01*
X-1500000Y4000000D02*
X-1425000Y4075000D01*
X-425000Y-2575000D02*
X-425000Y-2975000D01*
X-425000Y3425000D02*
X-1075000Y3425000D01*
X1900000Y3000000D02*
X1500000Y3000000D01*
X1925000Y3425000D02*
X1925000Y3025000D01*
X-1500000Y3000000D02*
X-1500000Y3400000D01*
X2575000Y-2925000D02*
X2500000Y-3000000D01*
X-425000Y1075000D02*
X-425000Y425000D01*
X-1075000Y1075000D02*
X-1075000Y425000D01*
X-25000Y425000D02*
X0Y400000D01*
X1925000Y-2575000D02*
X1925000Y-2975000D01*
X-425000Y3025000D02*
X-400000Y3000000D01*
X-1075000Y-1925000D02*
X-1075000Y-2575000D01*
X-3425000Y3425000D02*
X-3025000Y3425000D01*
X-1500000Y-4500000D02*
X-2900000Y-4500000D01*
X-1100000Y3000000D02*
X-400000Y3000000D01*
X-1425000Y4075000D02*
X-1075000Y4075000D01*
X-1075000Y3425000D02*
X-1075000Y3025000D01*
X1525000Y-4925000D02*
X1925000Y-4925000D01*
X-3075000Y4075000D02*
X-3000000Y4000000D01*
X-1425000Y1075000D02*
X-1075000Y1075000D01*
X1925000Y-2975000D02*
X1900000Y-3000000D01*
X-3425000Y1075000D02*
X-3425000Y425000D01*
X1500000Y0D02*
X1500000Y400000D01*
X-1500000Y400000D02*
X-1475000Y425000D01*
X-3000000Y0D02*
X-3000000Y-1300000D01*
X-3000000Y-1300000D02*
X-3200000Y-1500000D01*
X-3425000Y-2975000D02*
X-3425000Y-2575000D01*
X-3425000Y4075000D02*
X-3075000Y4075000D01*
X1925000Y425000D02*
X1525000Y425000D01*
X1500000Y0D02*
X0Y0D01*
X0Y3400000D02*
X0Y4000000D01*
X1900000Y-4500000D02*
X2400000Y-4500000D01*
X-1500000Y0D02*
X-1500000Y400000D01*
X1500000Y3400000D02*
X1500000Y4000000D01*
X2575000Y425000D02*
X2575000Y75000D01*
X2500000Y-3000000D02*
X1900000Y-3000000D01*
X-1075000Y25000D02*
X-1100000Y0D01*
X-1100000Y-4500000D02*
X-400000Y-4500000D01*
X-3000000Y1500000D02*
X-3400000Y1500000D01*
X2575000Y-4925000D02*
X2575000Y-4525000D01*
X-3000000Y400000D02*
X-3000000Y0D01*
X-3000000Y3000000D02*
X-2900000Y3000000D01*
X1925000Y-4925000D02*
X2575000Y-4925000D01*
X1550368Y-3150368D02*
X1500000Y-3200736D01*
X-3200000Y-1500000D02*
X-3400000Y-1500000D01*
X-3425000Y25000D02*
X-3425000Y425000D01*
X-3425000Y425000D02*
X-3025000Y425000D01*
X-1075000Y4075000D02*
X-1075000Y3425000D01*
X-1075000Y1075000D02*
X-425000Y1075000D01*
X-3000000Y1500000D02*
X-3000000Y1100000D01*
X-2900000Y-4500000D02*
X-3400000Y-4500000D01*
X-2900000Y3000000D02*
X-1500000Y3000000D01*
X-3000000Y1100000D02*
X-3000000Y400000D01*
X0Y0D02*
X-400000Y0D01*
X1925000Y4075000D02*
X1925000Y3425000D01*
X-1500000Y-3200000D02*
X-1500000Y-4500000D01*
X1500000Y1000000D02*
X1575000Y1075000D01*
X-1075000Y3025000D02*
X-1100000Y3000000D01*
X-3000000Y0D02*
X-3400000Y0D01*
X2500000Y3000000D02*
X1900000Y3000000D01*
X-3000000Y-4500000D02*
X-3000000Y-3200736D01*
X-3425000Y-4525000D02*
X-3425000Y-4925000D01*
X-425000Y3425000D02*
X-25000Y3425000D01*
X1500000Y-4500000D02*
X1900000Y-4500000D01*
X-3025000Y425000D02*
X-3000000Y400000D01*
X1925000Y3425000D02*
X1525000Y3425000D01*
X0Y-4900000D02*
X-25000Y-4925000D01*
X-1075000Y425000D02*
X-1075000Y25000D01*
X-1475000Y425000D02*
X-1075000Y425000D01*
X-3400000Y3000000D02*
X-3425000Y3025000D01*
X1500000Y400000D02*
X1500000Y1000000D01*
X1925000Y1075000D02*
X2575000Y1075000D01*
X1500000Y-4500000D02*
X1500000Y-4900000D01*
X-425000Y-2575000D02*
X-1075000Y-2575000D01*
X-1075000Y425000D02*
X-425000Y425000D01*
X1700000Y-3000000D02*
X1600000Y-3100000D01*
X-1500000Y400000D02*
X-1500000Y1000000D01*
X-75000Y1075000D02*
X-425000Y1075000D01*
X0Y1000000D02*
X-75000Y1075000D01*
X-3425000Y-4925000D02*
X-3025000Y-4925000D01*
X2575000Y3425000D02*
X1925000Y3425000D01*
X1600000Y-3100736D02*
X1550368Y-3150368D01*
X-1500000Y1000000D02*
X-1425000Y1075000D01*
X-425000Y-4925000D02*
X-1075000Y-4925000D01*
X-1500000Y-4500000D02*
X-1500000Y-4900000D01*
X-3425000Y-2575000D02*
X-3425000Y-1925000D01*
X-1475000Y3425000D02*
X-1500000Y3400000D01*
X-3025000Y-4925000D02*
X-3000000Y-4900000D01*
X-3425000Y3425000D02*
X-3425000Y4075000D01*
X-425000Y-4525000D02*
X-400000Y-4500000D01*
X1925000Y425000D02*
X2575000Y425000D01*
X1925000Y25000D02*
X1900000Y0D01*
X1575000Y1075000D02*
X1925000Y1075000D01*
X1550368Y-3150368D02*
X1550000Y-3150736D01*
X1500000Y3000000D02*
X1500000Y3400000D01*
X-1300000Y-3000000D02*
X-1100000Y-3000000D01*
X-25000Y3425000D02*
X0Y3400000D01*
X-1075000Y-4525000D02*
X-1100000Y-4500000D01*
X1500000Y4000000D02*
X1575000Y4075000D01*
X-2900000Y3000000D02*
X-3400000Y3000000D01*
X-425000Y-1925000D02*
X-425000Y-2575000D01*
X-1500000Y-4900000D02*
X-1475000Y-4925000D01*
X1925000Y-2575000D02*
X2575000Y-2575000D01*
X-1300000Y-3000000D02*
X-1500000Y-3200000D01*
X-3425000Y-1525000D02*
X-3425000Y-1925000D01*
X-1075000Y-4925000D02*
X-1075000Y-4525000D01*
X1900000Y0D02*
X1500000Y0D01*
X-3400000Y1500000D02*
X-3425000Y1475000D01*
X-1100000Y0D02*
X-1500000Y0D01*
X1600000Y-3100000D02*
X1600000Y-3100736D01*
X-2900000Y-4500000D02*
X-3000000Y-4500000D01*
X2575000Y3075000D02*
X2500000Y3000000D01*
X-3200736Y-3000000D02*
X-3400000Y-3000000D01*
X1575000Y4075000D02*
X1925000Y4075000D01*
X2500000Y0D02*
X1900000Y0D01*
X0Y0D02*
X0Y400000D01*
X-425000Y4075000D02*
X-1075000Y4075000D01*
X1525000Y3425000D02*
X1500000Y3400000D01*
X-3400000Y-4500000D02*
X-3425000Y-4525000D01*
X-3400000Y0D02*
X-3425000Y25000D01*
X-1075000Y-2975000D02*
X-1100000Y-3000000D01*
X-3000000Y-4500000D02*
X-3000000Y-4900000D01*
X-425000Y425000D02*
X-25000Y425000D01*
X1500000Y-4900000D02*
X1525000Y-4925000D01*
X-400000Y-4500000D02*
X0Y-4500000D01*
X-152818Y-3000000D02*
X-126409Y-3026409D01*
X0Y-4500000D02*
X0Y-4900000D01*
X1925000Y-1925000D02*
X1925000Y-2575000D01*
X-425000Y-4925000D02*
X-425000Y-4525000D01*
X-3425000Y1475000D02*
X-3425000Y1075000D01*
X-1075000Y-2575000D02*
X-1075000Y-2975000D01*
X-3025000Y3425000D02*
X-3000000Y3400000D01*
X-1100000Y-3000000D02*
X-400000Y-3000000D01*
X-3000000Y3400000D02*
X-3000000Y4000000D01*
X-425000Y4075000D02*
X-425000Y3425000D01*
X0Y4000000D02*
X-75000Y4075000D01*
X0Y3000000D02*
X-400000Y3000000D01*
X2400000Y-4500000D02*
X2500000Y-4500000D01*
X-1500000Y3400000D02*
X-1500000Y4000000D01*
X2575000Y-1925000D02*
X1925000Y-1925000D01*
X-400000Y0D02*
X-1100000Y0D01*
X1925000Y3025000D02*
X1900000Y3000000D01*
X-75000Y4075000D02*
X-425000Y4075000D01*
X1700000Y-3000000D02*
X1900000Y-3000000D01*
X1925000Y-4525000D02*
X1900000Y-4500000D01*
X-3000000Y3000000D02*
X-3000000Y1500000D01*
X-3400000Y-3000000D02*
X-3425000Y-2975000D01*
X0Y-3152818D02*
X-126409Y-3026409D01*
X1925000Y-4925000D02*
X1925000Y-4525000D01*
X1525000Y425000D02*
X1500000Y400000D01*
X2575000Y-4575000D02*
X2575000Y-4925000D01*
X-1500000Y3000000D02*
X-1100000Y3000000D01*
X-1075000Y-1925000D02*
X-425000Y-1925000D01*
X0Y400000D02*
X0Y1000000D01*
X1925000Y425000D02*
X1925000Y25000D01*
X2575000Y4075000D02*
X1925000Y4075000D01*
X-3000000Y3000000D02*
X-3000000Y3400000D01*
X-3425000Y1075000D02*
X-3025000Y1075000D01*
X-425000Y25000D02*
X-400000Y0D01*
X2575000Y-2575000D02*
X2575000Y-2925000D01*
X-1500000Y0D02*
X-3000000Y0D01*
X-3425000Y3025000D02*
X-3425000Y3425000D01*
X2575000Y75000D02*
X2500000Y0D01*
X2575000Y1075000D02*
X2575000Y425000D01*
X2575000Y3425000D02*
X2575000Y3075000D01*
X-3000000Y-3200736D02*
X-3200736Y-3000000D01*
X-3025000Y1075000D02*
X-3000000Y1100000D01*
X-400000Y-3000000D02*
X-152818Y-3000000D01*
X-425000Y425000D02*
X-425000Y25000D01*
X1925000Y1075000D02*
X1925000Y425000D01*
X-425000Y3425000D02*
X-425000Y3025000D01*
X-25000Y-4925000D02*
X-425000Y-4925000D01*
X0Y3000000D02*
X0Y3400000D01*
X2575000Y4075000D02*
X2575000Y3425000D01*
X1500000Y3000000D02*
X0Y3000000D01*
X-1075000Y3425000D02*
X-1475000Y3425000D01*
X-3400000Y-1500000D02*
X-3425000Y-1525000D01*
X-1475000Y-4925000D02*
X-1075000Y-4925000D01*
X-425000Y-2975000D02*
X-400000Y-3000000D01*
X0Y-4500000D02*
X0Y-3152818D01*
X-300000Y-2700000D02*
X-425000Y-2575000D01*
%TO.N,GND*%
X3400000Y-1500000D02*
X3425000Y-1475000D01*
X1075000Y-3425000D02*
X1075000Y-3025000D01*
X-1500000Y-500000D02*
X-1575000Y-425000D01*
X-1925000Y2575000D02*
X-1925000Y1925000D01*
X75000Y-425000D02*
X0Y-500000D01*
X-2575000Y4575000D02*
X-2575000Y4925000D01*
X-1925000Y-4075000D02*
X-2575000Y-4075000D01*
X-2300000Y-1500000D02*
X-2500000Y-1500000D01*
X400000Y4500000D02*
X1100000Y4500000D01*
X425000Y1925000D02*
X425000Y1525000D01*
X3000000Y3000000D02*
X3400000Y3000000D01*
X-1500000Y-1500000D02*
X-1900000Y-1500000D01*
X-1500000Y4500000D02*
X-1700000Y4500000D01*
X1075000Y4925000D02*
X1075000Y4525000D01*
X400000Y1500000D02*
X0Y1500000D01*
X-2575000Y-4075000D02*
X-2575000Y-3425000D01*
X1425000Y-425000D02*
X1500000Y-500000D01*
X3025000Y1925000D02*
X3000000Y1900000D01*
X-1500000Y4900000D02*
X-1525000Y4925000D01*
X425000Y4525000D02*
X400000Y4500000D01*
X3000000Y4500000D02*
X3000000Y3000000D01*
X3425000Y-1475000D02*
X3425000Y-1075000D01*
X3000000Y2600000D02*
X3000000Y1900000D01*
X425000Y4925000D02*
X1075000Y4925000D01*
X1100000Y1500000D02*
X1500000Y1500000D01*
X-1925000Y-425000D02*
X-2575000Y-425000D01*
X-1500000Y4500000D02*
X-1500000Y4900000D01*
X3400000Y1500000D02*
X3425000Y1525000D01*
X-1925000Y-1075000D02*
X-1525000Y-1075000D01*
X0Y-500000D02*
X0Y-1100000D01*
X3425000Y2975000D02*
X3425000Y2575000D01*
X3000000Y3000000D02*
X3000000Y2600000D01*
X-1800000Y1500000D02*
X-1900000Y1500000D01*
X1500000Y1900000D02*
X1500000Y2500000D01*
X-1800000Y1500000D02*
X-2500000Y1500000D01*
X400000Y-3000000D02*
X1100000Y-3000000D01*
X-1500000Y-1500000D02*
X-1500000Y-1600000D01*
X-2300000Y-1500000D02*
X-2800000Y-1500000D01*
X425000Y-3025000D02*
X400000Y-3000000D01*
X-1925000Y4525000D02*
X-1925000Y4925000D01*
X-1925000Y-3425000D02*
X-2575000Y-3425000D01*
X1100000Y4500000D02*
X1500000Y4500000D01*
X1500000Y1500000D02*
X3000000Y1500000D01*
X425000Y-3425000D02*
X425000Y-4075000D01*
X200736Y-3000000D02*
X400000Y-3000000D01*
X1075000Y2575000D02*
X425000Y2575000D01*
X3400000Y0D02*
X3425000Y-25000D01*
X-2575000Y-1500000D02*
X-2575000Y-1075000D01*
X75000Y2575000D02*
X425000Y2575000D01*
X-1700000Y4500000D02*
X-2500000Y4500000D01*
X-1925000Y1925000D02*
X-1525000Y1925000D01*
X3425000Y-3425000D02*
X3300000Y-3300000D01*
X3425000Y-3425000D02*
X3425000Y-4075000D01*
X3400000Y4500000D02*
X3425000Y4525000D01*
X-1500000Y1500000D02*
X-1800000Y1500000D01*
X3425000Y-1075000D02*
X3025000Y-1075000D01*
X-1525000Y4925000D02*
X-1925000Y4925000D01*
X-1925000Y-3425000D02*
X-1925000Y-4075000D01*
X0Y1500000D02*
X-1500000Y1500000D01*
X3000000Y-400000D02*
X3000000Y-1100000D01*
X1075000Y-1075000D02*
X1475000Y-1075000D01*
X1075000Y4925000D02*
X1475000Y4925000D01*
X25000Y-1075000D02*
X0Y-1100000D01*
X1075000Y-3425000D02*
X425000Y-3425000D01*
X-1800000Y-3300000D02*
X-1925000Y-3425000D01*
X-3000000Y-2847182D02*
X-2847182Y-3000000D01*
X3000000Y4500000D02*
X3000000Y4900000D01*
X3400000Y3000000D02*
X3425000Y2975000D01*
X1475000Y-1075000D02*
X1500000Y-1100000D01*
X25000Y4925000D02*
X425000Y4925000D01*
X-2575000Y1925000D02*
X-1925000Y1925000D01*
X1075000Y-425000D02*
X1425000Y-425000D01*
X3000000Y-2800000D02*
X3000000Y-1100000D01*
X-1525000Y-1075000D02*
X-1500000Y-1100000D01*
X300368Y-3300368D02*
X425000Y-3425000D01*
X0Y2500000D02*
X75000Y2575000D01*
X425000Y4925000D02*
X425000Y4525000D01*
X3000000Y1900000D02*
X3000000Y0D01*
X1500000Y-500000D02*
X1500000Y-1100000D01*
X-1500000Y1500000D02*
X-1500000Y1900000D01*
X425000Y1925000D02*
X1075000Y1925000D01*
X0Y1500000D02*
X0Y1900000D01*
X3000000Y0D02*
X3000000Y-400000D01*
X-1500000Y-1600000D02*
X-1500000Y-1100000D01*
X-2575000Y-3025000D02*
X-2600000Y-3000000D01*
X3425000Y4525000D02*
X3425000Y4925000D01*
X-2800000Y-1500000D02*
X-3000000Y-1700000D01*
X1075000Y-425000D02*
X425000Y-425000D01*
X-1925000Y1525000D02*
X-1925000Y1925000D01*
X3425000Y2575000D02*
X3425000Y1925000D01*
X3025000Y2575000D02*
X3000000Y2600000D01*
X0Y4900000D02*
X25000Y4925000D01*
X3200000Y-3000000D02*
X3000000Y-2800000D01*
X-1900000Y4500000D02*
X-1925000Y4525000D01*
X425000Y-425000D02*
X425000Y-1075000D01*
X1075000Y-1075000D02*
X425000Y-1075000D01*
X-1925000Y-3425000D02*
X-1925000Y-3025000D01*
X-2575000Y1575000D02*
X-2575000Y1925000D01*
X-1500000Y-2800000D02*
X-1700000Y-3000000D01*
X1500000Y-1500000D02*
X3400000Y-1500000D01*
X400000Y-1500000D02*
X0Y-1500000D01*
X-2575000Y2575000D02*
X-1925000Y2575000D01*
X-2847182Y-3000000D02*
X-2600000Y-3000000D01*
X-1700000Y4500000D02*
X-1900000Y4500000D01*
X200368Y-2999632D02*
X0Y-2799264D01*
X425000Y-425000D02*
X75000Y-425000D01*
X1500000Y1500000D02*
X1500000Y1900000D01*
X1500000Y-1500000D02*
X1500000Y-2800000D01*
X-1575000Y-425000D02*
X-1925000Y-425000D01*
X0Y1900000D02*
X25000Y1925000D01*
X425000Y2575000D02*
X425000Y1925000D01*
X3025000Y-1075000D02*
X3000000Y-1100000D01*
X-1900000Y1500000D02*
X-1925000Y1525000D01*
X-1500000Y-1100000D02*
X-1500000Y-500000D01*
X1500000Y4500000D02*
X3000000Y4500000D01*
X1500000Y-2800000D02*
X1300000Y-3000000D01*
X-1925000Y-3025000D02*
X-1900000Y-3000000D01*
X0Y-2799264D02*
X0Y-1500000D01*
X1075000Y-425000D02*
X1075000Y-1075000D01*
X-1925000Y-1475000D02*
X-1925000Y-1075000D01*
X-1500000Y-1600000D02*
X-1500000Y-2800000D01*
X425000Y-3425000D02*
X425000Y-3025000D01*
X-2575000Y-3425000D02*
X-2575000Y-3025000D01*
X3200000Y-3000000D02*
X3400000Y-3000000D01*
X1075000Y-3025000D02*
X1100000Y-3000000D01*
X3000000Y1500000D02*
X3400000Y1500000D01*
X0Y4500000D02*
X0Y4900000D01*
X-1925000Y-1075000D02*
X-2575000Y-1075000D01*
X-3000000Y-1700000D02*
X-3000000Y-2847182D01*
X-2500000Y1500000D02*
X-2575000Y1575000D01*
X1075000Y1925000D02*
X1475000Y1925000D01*
X425000Y-1075000D02*
X25000Y-1075000D01*
X1500000Y2500000D02*
X1425000Y2575000D01*
X-1525000Y1925000D02*
X-1500000Y1900000D01*
X0Y-1500000D02*
X-1500000Y-1500000D01*
X-1575000Y2575000D02*
X-1925000Y2575000D01*
X1100000Y-3000000D02*
X1300000Y-3000000D01*
X1075000Y-4075000D02*
X425000Y-4075000D01*
X1475000Y4925000D02*
X1500000Y4900000D01*
X-1900000Y-3000000D02*
X-1700000Y-3000000D01*
X-1925000Y-425000D02*
X-1925000Y-1075000D01*
X200368Y-2999632D02*
X200736Y-3000000D01*
X1075000Y1925000D02*
X1075000Y1525000D01*
X3000000Y4500000D02*
X3400000Y4500000D01*
X3425000Y-425000D02*
X3425000Y-1075000D01*
X1075000Y2575000D02*
X1075000Y1925000D01*
X-1500000Y2500000D02*
X-1575000Y2575000D01*
X3425000Y1925000D02*
X3025000Y1925000D01*
X-1500000Y-1500000D02*
X-2300000Y-1500000D01*
X1075000Y-3425000D02*
X1075000Y-4075000D01*
X400000Y-1500000D02*
X1100000Y-1500000D01*
X-2575000Y-425000D02*
X-2575000Y-1075000D01*
X425000Y-1075000D02*
X425000Y-1475000D01*
X25000Y1925000D02*
X425000Y1925000D01*
X1075000Y4525000D02*
X1100000Y4500000D01*
X-1900000Y-1500000D02*
X-1925000Y-1475000D01*
X1075000Y-1075000D02*
X1075000Y-1475000D01*
X-2500000Y4500000D02*
X-2575000Y4575000D01*
X1100000Y-1500000D02*
X1500000Y-1500000D01*
X2987500Y1487500D02*
X3000000Y1500000D01*
X3425000Y1525000D02*
X3425000Y1925000D01*
X-1500000Y1900000D02*
X-1500000Y2500000D01*
X400000Y1500000D02*
X1100000Y1500000D01*
X3425000Y-25000D02*
X3425000Y-425000D01*
X1425000Y2575000D02*
X1075000Y2575000D01*
X-2575000Y2575000D02*
X-2575000Y1925000D01*
X1200000Y-3300000D02*
X1075000Y-3425000D01*
X1500000Y4900000D02*
X1500000Y4500000D01*
X-2600000Y-3000000D02*
X-1900000Y-3000000D01*
X3025000Y-425000D02*
X3000000Y-400000D01*
X3425000Y2575000D02*
X3025000Y2575000D01*
X0Y-1100000D02*
X0Y-1500000D01*
X400000Y4500000D02*
X0Y4500000D01*
X1500000Y-1100000D02*
X1500000Y-1500000D01*
X3000000Y0D02*
X3400000Y0D01*
X-2575000Y4925000D02*
X-1925000Y4925000D01*
X1475000Y1925000D02*
X1500000Y1900000D01*
X3425000Y-425000D02*
X3025000Y-425000D01*
X0Y4500000D02*
X-1500000Y4500000D01*
X0Y1900000D02*
X0Y2500000D01*
%TO.N,Net-(D2-DOUT)*%
X-1075000Y4925000D02*
X-425000Y4925000D01*
%TO.N,Net-(D3-DOUT)*%
X1075000Y4075000D02*
X425000Y4075000D01*
%TO.N,Net-(D4-DOUT)*%
X2575000Y4925000D02*
X1925000Y4925000D01*
%TO.N,Net-(D5-DOUT)*%
X3425000Y4075000D02*
X3425000Y3425000D01*
%TO.N,Net-(D6-DOUT)*%
X2575000Y2575000D02*
X1925000Y2575000D01*
%TO.N,Net-(D7-DOUT)*%
X1075000Y3425000D02*
X425000Y3425000D01*
%TO.N,Net-(D8-DOUT)*%
X-425000Y2575000D02*
X-1075000Y2575000D01*
%TO.N,Net-(D10-DIN)*%
X-1925000Y3425000D02*
X-2575000Y3425000D01*
%TO.N,Net-(D11-DOUT)*%
X-2575000Y1075000D02*
X-1925000Y1075000D01*
%TO.N,Net-(D12-DOUT)*%
X-1075000Y1925000D02*
X-425000Y1925000D01*
%TO.N,Net-(D13-DOUT)*%
X425000Y1075000D02*
X1075000Y1075000D01*
%TO.N,Net-(D14-DOUT)*%
X1925000Y1925000D02*
X2575000Y1925000D01*
%TO.N,Net-(D15-DOUT)*%
X3425000Y1075000D02*
X3425000Y425000D01*
%TO.N,Net-(D16-DOUT)*%
X1925000Y-425000D02*
X2575000Y-425000D01*
%TO.N,Net-(D17-DOUT)*%
X425000Y425000D02*
X1075000Y425000D01*
%TO.N,Net-(D18-DOUT)*%
X-1075000Y-425000D02*
X-425000Y-425000D01*
%TO.N,Net-(D19-DOUT)*%
X-2575000Y425000D02*
X-1925000Y425000D01*
%TO.N,Net-(D20-DOUT)*%
X-3425000Y-425000D02*
X-3425000Y-1075000D01*
%TO.N,Net-(D21-DOUT)*%
X-2575000Y-1925000D02*
X-1925000Y-1925000D01*
%TO.N,Net-(D22-DOUT)*%
X-1075000Y-1075000D02*
X-425000Y-1075000D01*
%TO.N,Net-(D23-DOUT)*%
X425000Y-1925000D02*
X1075000Y-1925000D01*
%TO.N,Net-(D24-DOUT)*%
X2575000Y-1075000D02*
X1925000Y-1075000D01*
%TO.N,Net-(D25-DOUT)*%
X3425000Y-1925000D02*
X3425000Y-2575000D01*
%TO.N,Net-(D26-DOUT)*%
X2575000Y-3425000D02*
X1925000Y-3425000D01*
%TO.N,Net-(D27-DOUT)*%
X425000Y-2575000D02*
X1075000Y-2575000D01*
%TO.N,Net-(D28-DOUT)*%
X-425000Y-3425000D02*
X-1075000Y-3425000D01*
%TO.N,Net-(D29-DOUT)*%
X-2575000Y-2575000D02*
X-1925000Y-2575000D01*
%TO.N,Net-(D30-DOUT)*%
X-3425000Y-4075000D02*
X-3425000Y-3425000D01*
%TO.N,Net-(D31-DOUT)*%
X-2575000Y-4925000D02*
X-1925000Y-4925000D01*
%TO.N,Net-(D32-DOUT)*%
X-425000Y-4075000D02*
X-1075000Y-4075000D01*
%TO.N,Net-(D33-DOUT)*%
X425000Y-4925000D02*
X1075000Y-4925000D01*
%TO.N,Net-(D34-DOUT)*%
X2575000Y-4075000D02*
X1925000Y-4075000D01*
%TO.N,Net-(D10-DOUT)*%
X-3425000Y2575000D02*
X-3425000Y1925000D01*
%TO.N,/DIN*%
X-3025000Y4925000D02*
X-3000000Y4900000D01*
X-3000000Y4900000D02*
X-3000000Y4500000D01*
X-3425000Y4925000D02*
X-3025000Y4925000D01*
X-3000000Y4500000D02*
X-3400000Y4500000D01*
%TO.N,/DO*%
X3400000Y-4500000D02*
X3000000Y-4500000D01*
X3425000Y-4525000D02*
X3400000Y-4500000D01*
X3425000Y-4925000D02*
X3425000Y-4525000D01*
%TD*%
%TA.AperFunction,Conductor*%
%TO.N,GND*%
G36*
X-1429390Y5181487D02*
G01*
X-1411377Y5138000D01*
X-1412559Y5126002D01*
X-1425500Y5060946D01*
X-1425500Y4789055D01*
X-1411693Y4719639D01*
X-1400000Y4702140D01*
X-1359089Y4640911D01*
X-1299978Y4601415D01*
X-1280362Y4588308D01*
X-1225054Y4577308D01*
X-1210946Y4574501D01*
X-1210945Y4574500D01*
X-1210942Y4574500D01*
X-939055Y4574500D01*
X-939055Y4574501D01*
X-911214Y4580039D01*
X-869639Y4588308D01*
X-869638Y4588309D01*
X-869637Y4588309D01*
X-790911Y4640911D01*
X-790911Y4640912D01*
X-785874Y4644277D01*
X-784415Y4642093D01*
X-750000Y4656348D01*
X-715586Y4642093D01*
X-714126Y4644277D01*
X-709090Y4640912D01*
X-709089Y4640911D01*
X-699500Y4634504D01*
X-630362Y4588308D01*
X-575054Y4577308D01*
X-560946Y4574501D01*
X-560945Y4574500D01*
X-560942Y4574500D01*
X-289055Y4574500D01*
X-289055Y4574501D01*
X-261214Y4580039D01*
X-219639Y4588308D01*
X-219638Y4588309D01*
X-219637Y4588309D01*
X-140911Y4640911D01*
X-88309Y4719637D01*
X-88309Y4719638D01*
X-88308Y4719639D01*
X-74501Y4789055D01*
X-74500Y4789055D01*
X-74500Y4850000D01*
X75000Y4850000D01*
X75000Y4789105D01*
X88779Y4719833D01*
X141272Y4641273D01*
X219832Y4588780D01*
X289104Y4575001D01*
X289105Y4575000D01*
X350000Y4575000D01*
X350000Y4850000D01*
X500000Y4850000D01*
X500000Y4575000D01*
X560895Y4575000D01*
X560895Y4575001D01*
X630167Y4588780D01*
X713764Y4644637D01*
X715112Y4642620D01*
X750000Y4657070D01*
X784887Y4642620D01*
X786236Y4644637D01*
X869832Y4588780D01*
X939104Y4575001D01*
X939105Y4575000D01*
X1000000Y4575000D01*
X1000000Y4850000D01*
X1150000Y4850000D01*
X1150000Y4575000D01*
X1210895Y4575000D01*
X1210895Y4575001D01*
X1280167Y4588780D01*
X1358727Y4641273D01*
X1411220Y4719833D01*
X1424999Y4789105D01*
X1425000Y4789105D01*
X1425000Y4850000D01*
X1150000Y4850000D01*
X1000000Y4850000D01*
X500000Y4850000D01*
X350000Y4850000D01*
X75000Y4850000D01*
X-74500Y4850000D01*
X-74500Y5060945D01*
X-74501Y5060946D01*
X-87441Y5126002D01*
X-78259Y5172167D01*
X-39121Y5198318D01*
X-27123Y5199500D01*
X27633Y5199500D01*
X71120Y5181487D01*
X89133Y5138000D01*
X87951Y5126002D01*
X75000Y5060896D01*
X75000Y5000000D01*
X1425000Y5000000D01*
X1425000Y5060895D01*
X1424999Y5060896D01*
X1412049Y5126002D01*
X1421231Y5172167D01*
X1460369Y5198318D01*
X1472367Y5199500D01*
X1527123Y5199500D01*
X1570610Y5181487D01*
X1588623Y5138000D01*
X1587441Y5126002D01*
X1574500Y5060946D01*
X1574500Y4789055D01*
X1588307Y4719639D01*
X1600000Y4702140D01*
X1640911Y4640911D01*
X1700022Y4601415D01*
X1719638Y4588308D01*
X1774946Y4577308D01*
X1789054Y4574501D01*
X1789055Y4574500D01*
X1789058Y4574500D01*
X2060945Y4574500D01*
X2060945Y4574501D01*
X2088786Y4580039D01*
X2130361Y4588308D01*
X2130362Y4588309D01*
X2130363Y4588309D01*
X2209089Y4640911D01*
X2209089Y4640912D01*
X2214126Y4644277D01*
X2215585Y4642093D01*
X2250000Y4656348D01*
X2284414Y4642093D01*
X2285874Y4644277D01*
X2290910Y4640912D01*
X2290911Y4640911D01*
X2300500Y4634504D01*
X2369638Y4588308D01*
X2424946Y4577308D01*
X2439054Y4574501D01*
X2439055Y4574500D01*
X2439058Y4574500D01*
X2710945Y4574500D01*
X2710945Y4574501D01*
X2738786Y4580039D01*
X2780361Y4588308D01*
X2780362Y4588309D01*
X2780363Y4588309D01*
X2859089Y4640911D01*
X2911691Y4719637D01*
X2911691Y4719638D01*
X2911692Y4719639D01*
X2925499Y4789055D01*
X2925500Y4789055D01*
X2925500Y4850000D01*
X3075000Y4850000D01*
X3075000Y4789105D01*
X3088779Y4719833D01*
X3141272Y4641273D01*
X3219832Y4588780D01*
X3289104Y4575001D01*
X3289105Y4575000D01*
X3350000Y4575000D01*
X3350000Y4850000D01*
X3075000Y4850000D01*
X2925500Y4850000D01*
X2925500Y5060945D01*
X2925499Y5060946D01*
X2912559Y5126002D01*
X2921741Y5172167D01*
X2960879Y5198318D01*
X2972877Y5199500D01*
X3027633Y5199500D01*
X3071120Y5181487D01*
X3089133Y5138000D01*
X3087951Y5126002D01*
X3075000Y5060896D01*
X3075000Y5000000D01*
X3438500Y5000000D01*
X3481987Y4981987D01*
X3500000Y4938500D01*
X3500000Y4575000D01*
X3560895Y4575000D01*
X3560895Y4575001D01*
X3626002Y4587951D01*
X3672167Y4578769D01*
X3698318Y4539631D01*
X3699500Y4527633D01*
X3699500Y4472878D01*
X3681487Y4429391D01*
X3638000Y4411378D01*
X3626002Y4412560D01*
X3560945Y4425500D01*
X3560942Y4425500D01*
X3289058Y4425500D01*
X3289055Y4425500D01*
X3219638Y4411693D01*
X3140911Y4359089D01*
X3088307Y4280362D01*
X3074500Y4210946D01*
X3074500Y3939055D01*
X3088307Y3869639D01*
X3144277Y3785874D01*
X3142092Y3784415D01*
X3156348Y3750000D01*
X3142092Y3715586D01*
X3144277Y3714126D01*
X3088307Y3630362D01*
X3074500Y3560946D01*
X3074500Y3289055D01*
X3088307Y3219639D01*
X3100000Y3202140D01*
X3140911Y3140911D01*
X3200022Y3101415D01*
X3219638Y3088308D01*
X3274946Y3077308D01*
X3289054Y3074501D01*
X3289055Y3074500D01*
X3289058Y3074500D01*
X3560945Y3074500D01*
X3560945Y3074501D01*
X3589236Y3080129D01*
X3626002Y3087441D01*
X3672167Y3078259D01*
X3698318Y3039121D01*
X3699500Y3027123D01*
X3699500Y2972368D01*
X3681487Y2928881D01*
X3638000Y2910868D01*
X3626002Y2912050D01*
X3560895Y2925000D01*
X3500000Y2925000D01*
X3500000Y1575000D01*
X3560895Y1575000D01*
X3560895Y1575001D01*
X3626002Y1587951D01*
X3672167Y1578769D01*
X3698318Y1539631D01*
X3699500Y1527633D01*
X3699500Y1472878D01*
X3681487Y1429391D01*
X3638000Y1411378D01*
X3626002Y1412560D01*
X3560945Y1425500D01*
X3560942Y1425500D01*
X3289058Y1425500D01*
X3289055Y1425500D01*
X3219638Y1411693D01*
X3140911Y1359089D01*
X3088307Y1280362D01*
X3074500Y1210946D01*
X3074500Y939055D01*
X3088307Y869639D01*
X3144277Y785874D01*
X3142092Y784415D01*
X3156348Y750000D01*
X3142092Y715586D01*
X3144277Y714126D01*
X3088307Y630362D01*
X3074500Y560946D01*
X3074500Y289055D01*
X3088307Y219639D01*
X3100000Y202140D01*
X3140911Y140911D01*
X3200022Y101415D01*
X3219638Y88308D01*
X3274946Y77308D01*
X3289054Y74501D01*
X3289055Y74500D01*
X3289058Y74500D01*
X3560945Y74500D01*
X3560945Y74501D01*
X3589236Y80129D01*
X3626002Y87441D01*
X3672167Y78259D01*
X3698318Y39121D01*
X3699500Y27123D01*
X3699500Y-27632D01*
X3681487Y-71119D01*
X3638000Y-89132D01*
X3626002Y-87950D01*
X3560895Y-75000D01*
X3500000Y-75000D01*
X3500000Y-1425000D01*
X3560895Y-1425000D01*
X3560895Y-1424999D01*
X3626002Y-1412049D01*
X3672167Y-1421231D01*
X3698318Y-1460369D01*
X3699500Y-1472367D01*
X3699500Y-1527122D01*
X3681487Y-1570609D01*
X3638000Y-1588622D01*
X3626002Y-1587440D01*
X3560945Y-1574500D01*
X3560942Y-1574500D01*
X3289058Y-1574500D01*
X3289055Y-1574500D01*
X3219638Y-1588307D01*
X3140911Y-1640911D01*
X3088307Y-1719638D01*
X3074500Y-1789054D01*
X3074500Y-2060945D01*
X3088307Y-2130361D01*
X3144277Y-2214126D01*
X3142092Y-2215585D01*
X3156348Y-2250000D01*
X3142092Y-2284414D01*
X3144277Y-2285874D01*
X3088307Y-2369638D01*
X3074500Y-2439054D01*
X3074500Y-2710945D01*
X3088307Y-2780361D01*
X3092681Y-2786907D01*
X3140911Y-2859089D01*
X3200022Y-2898585D01*
X3219638Y-2911692D01*
X3274946Y-2922692D01*
X3289054Y-2925499D01*
X3289055Y-2925500D01*
X3289058Y-2925500D01*
X3560945Y-2925500D01*
X3560945Y-2925499D01*
X3589236Y-2919871D01*
X3626002Y-2912559D01*
X3672167Y-2921741D01*
X3698318Y-2960879D01*
X3699500Y-2972877D01*
X3699500Y-3027632D01*
X3681487Y-3071119D01*
X3638000Y-3089132D01*
X3626002Y-3087950D01*
X3560895Y-3075000D01*
X3500000Y-3075000D01*
X3500000Y-4088500D01*
X3481987Y-4131987D01*
X3438500Y-4150000D01*
X3075000Y-4150000D01*
X3068513Y-4156487D01*
X3025026Y-4174500D01*
X2987000Y-4174500D01*
X2943513Y-4156487D01*
X2925500Y-4113000D01*
X2925500Y-3939055D01*
X2925499Y-3939054D01*
X2911692Y-3869638D01*
X2855723Y-3785874D01*
X2857907Y-3784414D01*
X2843652Y-3750000D01*
X2857907Y-3715585D01*
X2855723Y-3714126D01*
X2911692Y-3630361D01*
X2925499Y-3560945D01*
X2925500Y-3560945D01*
X2925500Y-3500000D01*
X3075000Y-3500000D01*
X3075000Y-3560895D01*
X3088779Y-3630167D01*
X3144637Y-3713764D01*
X3142619Y-3715112D01*
X3157070Y-3750000D01*
X3142619Y-3784887D01*
X3144637Y-3786236D01*
X3088779Y-3869832D01*
X3075000Y-3939104D01*
X3075000Y-4000000D01*
X3350000Y-4000000D01*
X3350000Y-3500000D01*
X3075000Y-3500000D01*
X2925500Y-3500000D01*
X2925500Y-3350000D01*
X3075000Y-3350000D01*
X3350000Y-3350000D01*
X3350000Y-3075000D01*
X3289105Y-3075000D01*
X3219832Y-3088779D01*
X3141272Y-3141272D01*
X3088779Y-3219832D01*
X3075000Y-3289104D01*
X3075000Y-3350000D01*
X2925500Y-3350000D01*
X2925500Y-3289055D01*
X2925499Y-3289054D01*
X2911692Y-3219638D01*
X2890552Y-3188000D01*
X2859089Y-3140911D01*
X2780363Y-3088309D01*
X2780362Y-3088308D01*
X2780360Y-3088307D01*
X2777840Y-3087263D01*
X2775912Y-3085335D01*
X2775327Y-3084944D01*
X2775404Y-3084827D01*
X2744559Y-3053977D01*
X2744561Y-3006909D01*
X2751975Y-2989013D01*
X2763000Y-2962396D01*
X2763000Y-2956164D01*
X2781013Y-2912677D01*
X2790323Y-2905035D01*
X2859089Y-2859089D01*
X2911691Y-2780363D01*
X2911691Y-2780362D01*
X2911692Y-2780361D01*
X2925499Y-2710945D01*
X2925500Y-2710945D01*
X2925500Y-2439055D01*
X2925499Y-2439054D01*
X2911692Y-2369638D01*
X2855723Y-2285874D01*
X2857907Y-2284414D01*
X2843652Y-2250000D01*
X2857907Y-2215585D01*
X2855723Y-2214126D01*
X2911692Y-2130361D01*
X2925499Y-2060945D01*
X2925500Y-2060945D01*
X2925500Y-1789055D01*
X2925499Y-1789054D01*
X2911692Y-1719638D01*
X2898585Y-1700022D01*
X2859089Y-1640911D01*
X2807578Y-1606493D01*
X2780361Y-1588307D01*
X2710945Y-1574500D01*
X2710942Y-1574500D01*
X2439058Y-1574500D01*
X2439055Y-1574500D01*
X2369638Y-1588307D01*
X2307035Y-1630137D01*
X2290911Y-1640911D01*
X2290910Y-1640911D01*
X2285874Y-1644277D01*
X2284414Y-1642092D01*
X2250000Y-1656348D01*
X2215585Y-1642092D01*
X2214126Y-1644277D01*
X2209089Y-1640911D01*
X2157578Y-1606493D01*
X2130361Y-1588307D01*
X2060945Y-1574500D01*
X2060942Y-1574500D01*
X1789058Y-1574500D01*
X1789055Y-1574500D01*
X1719638Y-1588307D01*
X1640911Y-1640911D01*
X1588307Y-1719638D01*
X1574500Y-1789054D01*
X1574500Y-2060945D01*
X1588307Y-2130361D01*
X1644277Y-2214126D01*
X1642092Y-2215585D01*
X1656348Y-2250000D01*
X1642092Y-2284414D01*
X1644277Y-2285874D01*
X1588307Y-2369638D01*
X1574500Y-2439054D01*
X1574500Y-2710945D01*
X1588308Y-2780362D01*
X1590626Y-2785958D01*
X1588333Y-2786907D01*
X1595665Y-2823816D01*
X1578837Y-2855290D01*
X1493507Y-2940621D01*
X1438230Y-2995896D01*
X1434861Y-3000000D01*
X1393507Y-3041356D01*
X1355370Y-3079493D01*
X1311883Y-3097506D01*
X1286321Y-3089749D01*
X1285763Y-3091097D01*
X1280167Y-3088779D01*
X1210895Y-3075000D01*
X1150000Y-3075000D01*
X1150000Y-4088500D01*
X1131987Y-4131987D01*
X1088500Y-4150000D01*
X411500Y-4150000D01*
X368013Y-4131987D01*
X350000Y-4088500D01*
X350000Y-3500000D01*
X500000Y-3500000D01*
X500000Y-4000000D01*
X1000000Y-4000000D01*
X1000000Y-3500000D01*
X500000Y-3500000D01*
X350000Y-3500000D01*
X350000Y-3075000D01*
X500000Y-3075000D01*
X500000Y-3350000D01*
X1000000Y-3350000D01*
X1000000Y-3075000D01*
X939105Y-3075000D01*
X869832Y-3088779D01*
X786236Y-3144637D01*
X784887Y-3142619D01*
X750000Y-3157070D01*
X715112Y-3142619D01*
X713764Y-3144637D01*
X630167Y-3088779D01*
X560895Y-3075000D01*
X500000Y-3075000D01*
X350000Y-3075000D01*
X289105Y-3075000D01*
X229729Y-3086810D01*
X183563Y-3077627D01*
X160913Y-3050027D01*
X159381Y-3046329D01*
X159380Y-3046327D01*
X159379Y-3046325D01*
X106493Y-2993439D01*
X73830Y-2960776D01*
X65259Y-2940085D01*
X39223Y-2926169D01*
X-46322Y-2840624D01*
X-46324Y-2840622D01*
X-46325Y-2840621D01*
X-49561Y-2839280D01*
X-82841Y-2805997D01*
X-86340Y-2770465D01*
X-74500Y-2710945D01*
X74500Y-2710945D01*
X88307Y-2780361D01*
X133846Y-2848515D01*
X136447Y-2861592D01*
X151484Y-2866154D01*
X219635Y-2911690D01*
X219637Y-2911691D01*
X289054Y-2925499D01*
X289055Y-2925500D01*
X289058Y-2925500D01*
X560945Y-2925500D01*
X560945Y-2925499D01*
X588786Y-2919961D01*
X630361Y-2911692D01*
X630362Y-2911691D01*
X630363Y-2911691D01*
X709089Y-2859089D01*
X709089Y-2859088D01*
X714126Y-2855723D01*
X715585Y-2857907D01*
X750000Y-2843652D01*
X784414Y-2857907D01*
X785874Y-2855723D01*
X790910Y-2859088D01*
X790911Y-2859089D01*
X834094Y-2887942D01*
X869638Y-2911692D01*
X924946Y-2922692D01*
X939054Y-2925499D01*
X939055Y-2925500D01*
X939058Y-2925500D01*
X1210945Y-2925500D01*
X1210945Y-2925499D01*
X1238786Y-2919961D01*
X1280361Y-2911692D01*
X1280362Y-2911691D01*
X1280363Y-2911691D01*
X1359089Y-2859089D01*
X1411691Y-2780363D01*
X1411691Y-2780362D01*
X1411692Y-2780361D01*
X1425499Y-2710945D01*
X1425500Y-2710945D01*
X1425500Y-2439055D01*
X1425499Y-2439054D01*
X1411692Y-2369638D01*
X1355723Y-2285874D01*
X1357907Y-2284414D01*
X1343652Y-2250000D01*
X1357907Y-2215585D01*
X1355723Y-2214126D01*
X1411692Y-2130361D01*
X1425499Y-2060945D01*
X1425500Y-2060945D01*
X1425500Y-1789055D01*
X1425499Y-1789054D01*
X1411692Y-1719638D01*
X1398585Y-1700022D01*
X1359089Y-1640911D01*
X1307578Y-1606493D01*
X1280361Y-1588307D01*
X1210945Y-1574500D01*
X1210942Y-1574500D01*
X939058Y-1574500D01*
X939055Y-1574500D01*
X869638Y-1588307D01*
X807035Y-1630137D01*
X790911Y-1640911D01*
X790910Y-1640911D01*
X785874Y-1644277D01*
X784414Y-1642092D01*
X750000Y-1656348D01*
X715585Y-1642092D01*
X714126Y-1644277D01*
X709089Y-1640911D01*
X657578Y-1606493D01*
X630361Y-1588307D01*
X560945Y-1574500D01*
X560942Y-1574500D01*
X289058Y-1574500D01*
X289055Y-1574500D01*
X219638Y-1588307D01*
X140911Y-1640911D01*
X88307Y-1719638D01*
X74500Y-1789054D01*
X74500Y-2060945D01*
X88307Y-2130361D01*
X144277Y-2214126D01*
X142092Y-2215585D01*
X156348Y-2250000D01*
X142092Y-2284414D01*
X144277Y-2285874D01*
X88307Y-2369638D01*
X74500Y-2439054D01*
X74500Y-2710945D01*
X-74500Y-2710945D01*
X-74500Y-2710943D01*
X-74500Y-2439055D01*
X-74501Y-2439054D01*
X-88308Y-2369638D01*
X-144277Y-2285874D01*
X-142093Y-2284414D01*
X-156348Y-2250000D01*
X-142093Y-2215585D01*
X-144277Y-2214126D01*
X-88308Y-2130361D01*
X-74501Y-2060945D01*
X-74500Y-2060945D01*
X-74500Y-1789055D01*
X-74501Y-1789054D01*
X-88308Y-1719638D01*
X-101415Y-1700022D01*
X-140911Y-1640911D01*
X-192422Y-1606493D01*
X-219639Y-1588307D01*
X-289055Y-1574500D01*
X-289058Y-1574500D01*
X-560942Y-1574500D01*
X-560945Y-1574500D01*
X-630362Y-1588307D01*
X-692965Y-1630137D01*
X-709089Y-1640911D01*
X-709090Y-1640911D01*
X-714126Y-1644277D01*
X-715586Y-1642092D01*
X-750000Y-1656348D01*
X-784415Y-1642092D01*
X-785874Y-1644277D01*
X-790911Y-1640911D01*
X-842422Y-1606493D01*
X-869639Y-1588307D01*
X-939055Y-1574500D01*
X-939058Y-1574500D01*
X-1210942Y-1574500D01*
X-1210945Y-1574500D01*
X-1280362Y-1588307D01*
X-1359089Y-1640911D01*
X-1411693Y-1719638D01*
X-1425500Y-1789054D01*
X-1425500Y-2060945D01*
X-1411693Y-2130361D01*
X-1355723Y-2214126D01*
X-1357908Y-2215585D01*
X-1343652Y-2250000D01*
X-1357908Y-2284414D01*
X-1355723Y-2285874D01*
X-1411693Y-2369638D01*
X-1425500Y-2439054D01*
X-1425500Y-2710945D01*
X-1411692Y-2780362D01*
X-1409374Y-2785958D01*
X-1411670Y-2786908D01*
X-1404332Y-2823803D01*
X-1421163Y-2855289D01*
X-1560635Y-2994763D01*
X-1606493Y-3040621D01*
X-1629677Y-3063805D01*
X-1645071Y-3079199D01*
X-1688559Y-3097211D01*
X-1713621Y-3089607D01*
X-1714237Y-3091097D01*
X-1719833Y-3088779D01*
X-1789105Y-3075000D01*
X-1850000Y-3075000D01*
X-1850000Y-4088500D01*
X-1868013Y-4131987D01*
X-1911500Y-4150000D01*
X-2588500Y-4150000D01*
X-2631987Y-4131987D01*
X-2650000Y-4088500D01*
X-2650000Y-3500000D01*
X-2500000Y-3500000D01*
X-2500000Y-4000000D01*
X-2000000Y-4000000D01*
X-2000000Y-3500000D01*
X-2500000Y-3500000D01*
X-2650000Y-3500000D01*
X-2650000Y-3075000D01*
X-2500000Y-3075000D01*
X-2500000Y-3350000D01*
X-2000000Y-3350000D01*
X-2000000Y-3075000D01*
X-2060895Y-3075000D01*
X-2130168Y-3088779D01*
X-2213764Y-3144637D01*
X-2215113Y-3142619D01*
X-2250000Y-3157070D01*
X-2284888Y-3142619D01*
X-2286236Y-3144637D01*
X-2369833Y-3088779D01*
X-2439105Y-3075000D01*
X-2500000Y-3075000D01*
X-2650000Y-3075000D01*
X-2710895Y-3075000D01*
X-2780168Y-3088779D01*
X-2785763Y-3091097D01*
X-2786663Y-3088925D01*
X-2823902Y-3096319D01*
X-2855371Y-3079492D01*
X-3079134Y-2855730D01*
X-3097147Y-2812243D01*
X-3089331Y-2786490D01*
X-3090626Y-2785954D01*
X-3088314Y-2780370D01*
X-3088309Y-2780363D01*
X-3074501Y-2710945D01*
X-3074500Y-2710945D01*
X-2925500Y-2710945D01*
X-2911693Y-2780361D01*
X-2907319Y-2786907D01*
X-2859089Y-2859089D01*
X-2799978Y-2898585D01*
X-2780362Y-2911692D01*
X-2725054Y-2922692D01*
X-2710946Y-2925499D01*
X-2710945Y-2925500D01*
X-2710942Y-2925500D01*
X-2439055Y-2925500D01*
X-2439055Y-2925499D01*
X-2411214Y-2919961D01*
X-2369639Y-2911692D01*
X-2369638Y-2911691D01*
X-2369637Y-2911691D01*
X-2290911Y-2859089D01*
X-2290911Y-2859088D01*
X-2285874Y-2855723D01*
X-2284415Y-2857907D01*
X-2250000Y-2843652D01*
X-2215586Y-2857907D01*
X-2214126Y-2855723D01*
X-2209090Y-2859088D01*
X-2209089Y-2859089D01*
X-2165906Y-2887942D01*
X-2130362Y-2911692D01*
X-2075054Y-2922692D01*
X-2060946Y-2925499D01*
X-2060945Y-2925500D01*
X-2060942Y-2925500D01*
X-1789055Y-2925500D01*
X-1789055Y-2925499D01*
X-1761214Y-2919961D01*
X-1719639Y-2911692D01*
X-1719638Y-2911691D01*
X-1719637Y-2911691D01*
X-1640911Y-2859089D01*
X-1588309Y-2780363D01*
X-1588309Y-2780362D01*
X-1588308Y-2780361D01*
X-1574501Y-2710945D01*
X-1574500Y-2710945D01*
X-1574500Y-2439055D01*
X-1574501Y-2439054D01*
X-1588308Y-2369638D01*
X-1644277Y-2285874D01*
X-1642093Y-2284414D01*
X-1656348Y-2250000D01*
X-1642093Y-2215585D01*
X-1644277Y-2214126D01*
X-1588308Y-2130361D01*
X-1574501Y-2060945D01*
X-1574500Y-2060945D01*
X-1574500Y-1789055D01*
X-1574501Y-1789054D01*
X-1588308Y-1719638D01*
X-1601415Y-1700022D01*
X-1640911Y-1640911D01*
X-1692422Y-1606493D01*
X-1719639Y-1588307D01*
X-1789055Y-1574500D01*
X-1789058Y-1574500D01*
X-2060942Y-1574500D01*
X-2060945Y-1574500D01*
X-2130362Y-1588307D01*
X-2192965Y-1630137D01*
X-2209089Y-1640911D01*
X-2209090Y-1640911D01*
X-2214126Y-1644277D01*
X-2215586Y-1642092D01*
X-2250000Y-1656348D01*
X-2284415Y-1642092D01*
X-2285874Y-1644277D01*
X-2290911Y-1640911D01*
X-2342422Y-1606493D01*
X-2369639Y-1588307D01*
X-2439055Y-1574500D01*
X-2439058Y-1574500D01*
X-2710942Y-1574500D01*
X-2710945Y-1574500D01*
X-2780362Y-1588307D01*
X-2859089Y-1640911D01*
X-2911693Y-1719638D01*
X-2925500Y-1789054D01*
X-2925500Y-2060945D01*
X-2911693Y-2130361D01*
X-2855723Y-2214126D01*
X-2857908Y-2215585D01*
X-2843652Y-2250000D01*
X-2857908Y-2284414D01*
X-2855723Y-2285874D01*
X-2911693Y-2369638D01*
X-2925500Y-2439054D01*
X-2925500Y-2710945D01*
X-3074500Y-2710945D01*
X-3074500Y-2439055D01*
X-3074501Y-2439054D01*
X-3088308Y-2369638D01*
X-3144277Y-2285874D01*
X-3142093Y-2284414D01*
X-3156348Y-2250000D01*
X-3142093Y-2215585D01*
X-3144277Y-2214126D01*
X-3088308Y-2130361D01*
X-3074501Y-2060945D01*
X-3074500Y-2060945D01*
X-3074500Y-1789055D01*
X-3074501Y-1789054D01*
X-3088309Y-1719637D01*
X-3090626Y-1714042D01*
X-3088333Y-1713091D01*
X-3095668Y-1676189D01*
X-3078840Y-1644711D01*
X-3040621Y-1606493D01*
X-3040622Y-1606493D01*
X-2854927Y-1420799D01*
X-2811443Y-1402788D01*
X-2786380Y-1410392D01*
X-2785763Y-1408903D01*
X-2780168Y-1411220D01*
X-2710896Y-1424999D01*
X-2710895Y-1425000D01*
X-2650000Y-1425000D01*
X-2650000Y-1150000D01*
X-2500000Y-1150000D01*
X-2500000Y-1425000D01*
X-2439105Y-1425000D01*
X-2439105Y-1424999D01*
X-2369833Y-1411220D01*
X-2286236Y-1355363D01*
X-2284888Y-1357380D01*
X-2250000Y-1342930D01*
X-2215113Y-1357380D01*
X-2213764Y-1355363D01*
X-2130168Y-1411220D01*
X-2060896Y-1424999D01*
X-2060895Y-1425000D01*
X-2000000Y-1425000D01*
X-2000000Y-1150000D01*
X-1850000Y-1150000D01*
X-1850000Y-1425000D01*
X-1789105Y-1425000D01*
X-1789105Y-1424999D01*
X-1719833Y-1411220D01*
X-1641273Y-1358727D01*
X-1588780Y-1280167D01*
X-1575001Y-1210895D01*
X-1575000Y-1210895D01*
X-1575000Y-1150000D01*
X-1850000Y-1150000D01*
X-2000000Y-1150000D01*
X-2500000Y-1150000D01*
X-2650000Y-1150000D01*
X-2650000Y-500000D01*
X-2500000Y-500000D01*
X-2500000Y-1000000D01*
X-2000000Y-1000000D01*
X-2000000Y-500000D01*
X-1850000Y-500000D01*
X-1850000Y-1000000D01*
X-1575000Y-1000000D01*
X-1575000Y-939105D01*
X-1575001Y-939104D01*
X-1588780Y-869832D01*
X-1644637Y-786236D01*
X-1642620Y-784887D01*
X-1657070Y-750000D01*
X-1642620Y-715112D01*
X-1644637Y-713764D01*
X-1588780Y-630167D01*
X-1575001Y-560895D01*
X-1575000Y-560895D01*
X-1575000Y-500000D01*
X-1850000Y-500000D01*
X-2000000Y-500000D01*
X-2500000Y-500000D01*
X-2650000Y-500000D01*
X-2650000Y-411500D01*
X-2631987Y-368013D01*
X-2588500Y-350000D01*
X-1575000Y-350000D01*
X-1568513Y-343513D01*
X-1525026Y-325500D01*
X-1487000Y-325500D01*
X-1443513Y-343513D01*
X-1425500Y-387000D01*
X-1425500Y-560945D01*
X-1411693Y-630361D01*
X-1355723Y-714126D01*
X-1357908Y-715585D01*
X-1343652Y-750000D01*
X-1357908Y-784414D01*
X-1355723Y-785874D01*
X-1411693Y-869638D01*
X-1425500Y-939054D01*
X-1425500Y-1210945D01*
X-1411693Y-1280361D01*
X-1400000Y-1297860D01*
X-1359089Y-1359089D01*
X-1299978Y-1398585D01*
X-1280362Y-1411692D01*
X-1225054Y-1422692D01*
X-1210946Y-1425499D01*
X-1210945Y-1425500D01*
X-1210942Y-1425500D01*
X-939055Y-1425500D01*
X-939055Y-1425499D01*
X-911214Y-1419961D01*
X-869639Y-1411692D01*
X-869638Y-1411691D01*
X-869637Y-1411691D01*
X-790911Y-1359089D01*
X-790911Y-1359088D01*
X-785874Y-1355723D01*
X-784415Y-1357907D01*
X-750000Y-1343652D01*
X-715586Y-1357907D01*
X-714126Y-1355723D01*
X-709090Y-1359088D01*
X-709089Y-1359089D01*
X-699500Y-1365496D01*
X-630362Y-1411692D01*
X-575054Y-1422692D01*
X-560946Y-1425499D01*
X-560945Y-1425500D01*
X-560942Y-1425500D01*
X-289055Y-1425500D01*
X-289055Y-1425499D01*
X-261214Y-1419961D01*
X-219639Y-1411692D01*
X-219638Y-1411691D01*
X-219637Y-1411691D01*
X-140911Y-1359089D01*
X-88309Y-1280363D01*
X-88309Y-1280362D01*
X-88308Y-1280361D01*
X-74501Y-1210945D01*
X-74500Y-1210945D01*
X-74500Y-1150000D01*
X75000Y-1150000D01*
X75000Y-1210895D01*
X88779Y-1280167D01*
X141272Y-1358727D01*
X219832Y-1411220D01*
X289104Y-1424999D01*
X289105Y-1425000D01*
X350000Y-1425000D01*
X350000Y-1150000D01*
X500000Y-1150000D01*
X500000Y-1425000D01*
X560895Y-1425000D01*
X560895Y-1424999D01*
X630167Y-1411220D01*
X713764Y-1355363D01*
X715112Y-1357380D01*
X750000Y-1342930D01*
X784887Y-1357380D01*
X786236Y-1355363D01*
X869832Y-1411220D01*
X939104Y-1424999D01*
X939105Y-1425000D01*
X1000000Y-1425000D01*
X1000000Y-1150000D01*
X1150000Y-1150000D01*
X1150000Y-1425000D01*
X1210895Y-1425000D01*
X1210895Y-1424999D01*
X1280167Y-1411220D01*
X1358727Y-1358727D01*
X1411220Y-1280167D01*
X1424999Y-1210895D01*
X1425000Y-1210895D01*
X1425000Y-1150000D01*
X1150000Y-1150000D01*
X1000000Y-1150000D01*
X500000Y-1150000D01*
X350000Y-1150000D01*
X75000Y-1150000D01*
X-74500Y-1150000D01*
X-74500Y-939055D01*
X-74501Y-939054D01*
X-88308Y-869638D01*
X-144277Y-785874D01*
X-142093Y-784414D01*
X-156348Y-750000D01*
X-142093Y-715585D01*
X-144277Y-714126D01*
X-88308Y-630361D01*
X-74501Y-560945D01*
X-74500Y-560945D01*
X-74500Y-500000D01*
X75000Y-500000D01*
X75000Y-560895D01*
X88779Y-630167D01*
X144637Y-713764D01*
X142619Y-715112D01*
X157070Y-750000D01*
X142619Y-784887D01*
X144637Y-786236D01*
X88779Y-869832D01*
X75000Y-939104D01*
X75000Y-1000000D01*
X350000Y-1000000D01*
X350000Y-500000D01*
X500000Y-500000D01*
X500000Y-1000000D01*
X1000000Y-1000000D01*
X1000000Y-500000D01*
X1150000Y-500000D01*
X1150000Y-1000000D01*
X1425000Y-1000000D01*
X1425000Y-939105D01*
X1424999Y-939104D01*
X1411220Y-869832D01*
X1355363Y-786236D01*
X1357380Y-784887D01*
X1342930Y-750000D01*
X1357380Y-715112D01*
X1355363Y-713764D01*
X1411220Y-630167D01*
X1424999Y-560895D01*
X1425000Y-560895D01*
X1425000Y-500000D01*
X1150000Y-500000D01*
X1000000Y-500000D01*
X500000Y-500000D01*
X350000Y-500000D01*
X75000Y-500000D01*
X-74500Y-500000D01*
X-74500Y-289055D01*
X-74501Y-289052D01*
X-79981Y-261497D01*
X-70798Y-215332D01*
X-31660Y-189182D01*
X-19663Y-188000D01*
X20173Y-188000D01*
X63660Y-206013D01*
X81673Y-249500D01*
X80491Y-261497D01*
X75000Y-289102D01*
X75000Y-350000D01*
X1425000Y-350000D01*
X1431487Y-343513D01*
X1474974Y-325500D01*
X1513000Y-325500D01*
X1556487Y-343513D01*
X1574500Y-387000D01*
X1574500Y-560945D01*
X1588307Y-630361D01*
X1644277Y-714126D01*
X1642092Y-715585D01*
X1656348Y-750000D01*
X1642092Y-784414D01*
X1644277Y-785874D01*
X1588307Y-869638D01*
X1574500Y-939054D01*
X1574500Y-1210945D01*
X1588307Y-1280361D01*
X1600000Y-1297860D01*
X1640911Y-1359089D01*
X1700022Y-1398585D01*
X1719638Y-1411692D01*
X1774946Y-1422692D01*
X1789054Y-1425499D01*
X1789055Y-1425500D01*
X1789058Y-1425500D01*
X2060945Y-1425500D01*
X2060945Y-1425499D01*
X2088786Y-1419961D01*
X2130361Y-1411692D01*
X2130362Y-1411691D01*
X2130363Y-1411691D01*
X2209089Y-1359089D01*
X2209089Y-1359088D01*
X2214126Y-1355723D01*
X2215585Y-1357907D01*
X2250000Y-1343652D01*
X2284414Y-1357907D01*
X2285874Y-1355723D01*
X2290910Y-1359088D01*
X2290911Y-1359089D01*
X2300500Y-1365496D01*
X2369638Y-1411692D01*
X2424946Y-1422692D01*
X2439054Y-1425499D01*
X2439055Y-1425500D01*
X2439058Y-1425500D01*
X2710945Y-1425500D01*
X2710945Y-1425499D01*
X2738786Y-1419961D01*
X2780361Y-1411692D01*
X2780362Y-1411691D01*
X2780363Y-1411691D01*
X2859089Y-1359089D01*
X2911691Y-1280363D01*
X2911691Y-1280362D01*
X2911692Y-1280361D01*
X2925499Y-1210945D01*
X2925500Y-1210945D01*
X2925500Y-1150000D01*
X3075000Y-1150000D01*
X3075000Y-1210895D01*
X3088779Y-1280167D01*
X3141272Y-1358727D01*
X3219832Y-1411220D01*
X3289104Y-1424999D01*
X3289105Y-1425000D01*
X3350000Y-1425000D01*
X3350000Y-1150000D01*
X3075000Y-1150000D01*
X2925500Y-1150000D01*
X2925500Y-939055D01*
X2925499Y-939054D01*
X2911692Y-869638D01*
X2855723Y-785874D01*
X2857907Y-784414D01*
X2843652Y-750000D01*
X2857907Y-715585D01*
X2855723Y-714126D01*
X2911692Y-630361D01*
X2925499Y-560945D01*
X2925500Y-560945D01*
X2925500Y-500000D01*
X3075000Y-500000D01*
X3075000Y-560895D01*
X3088779Y-630167D01*
X3144637Y-713764D01*
X3142619Y-715112D01*
X3157070Y-750000D01*
X3142619Y-784887D01*
X3144637Y-786236D01*
X3088779Y-869832D01*
X3075000Y-939104D01*
X3075000Y-1000000D01*
X3350000Y-1000000D01*
X3350000Y-500000D01*
X3075000Y-500000D01*
X2925500Y-500000D01*
X2925500Y-350000D01*
X3075000Y-350000D01*
X3350000Y-350000D01*
X3350000Y-75000D01*
X3289105Y-75000D01*
X3219832Y-88779D01*
X3141272Y-141272D01*
X3088779Y-219832D01*
X3075000Y-289104D01*
X3075000Y-350000D01*
X2925500Y-350000D01*
X2925500Y-289055D01*
X2925499Y-289054D01*
X2911692Y-219638D01*
X2890552Y-188000D01*
X2859089Y-140911D01*
X2780363Y-88309D01*
X2780362Y-88308D01*
X2780360Y-88307D01*
X2777840Y-87263D01*
X2775912Y-85335D01*
X2775327Y-84944D01*
X2775404Y-84827D01*
X2744559Y-53977D01*
X2744561Y-6910D01*
X2762914Y37396D01*
X2762934Y37388D01*
X2762957Y37504D01*
X2763000Y37604D01*
X2763000Y43836D01*
X2781013Y87323D01*
X2790323Y94965D01*
X2859089Y140911D01*
X2911691Y219637D01*
X2911691Y219638D01*
X2911692Y219639D01*
X2925499Y289055D01*
X2925500Y289055D01*
X2925500Y560945D01*
X2925499Y560946D01*
X2911692Y630362D01*
X2855723Y714126D01*
X2857907Y715586D01*
X2843652Y750000D01*
X2857907Y784415D01*
X2855723Y785874D01*
X2911692Y869639D01*
X2925499Y939055D01*
X2925500Y939055D01*
X2925500Y1210945D01*
X2925499Y1210946D01*
X2911692Y1280362D01*
X2869403Y1343652D01*
X2859089Y1359089D01*
X2811999Y1390553D01*
X2780361Y1411693D01*
X2710945Y1425500D01*
X2710942Y1425500D01*
X2439058Y1425500D01*
X2439055Y1425500D01*
X2369638Y1411693D01*
X2307035Y1369863D01*
X2290911Y1359089D01*
X2290910Y1359089D01*
X2285874Y1355723D01*
X2284414Y1357908D01*
X2250000Y1343652D01*
X2215585Y1357908D01*
X2214126Y1355723D01*
X2209089Y1359089D01*
X2161999Y1390553D01*
X2130361Y1411693D01*
X2060945Y1425500D01*
X2060942Y1425500D01*
X1789058Y1425500D01*
X1789055Y1425500D01*
X1719638Y1411693D01*
X1640911Y1359089D01*
X1594971Y1290333D01*
X1555834Y1264182D01*
X1543835Y1263000D01*
X1537603Y1263000D01*
X1508983Y1251145D01*
X1508983Y1251146D01*
X1493088Y1244562D01*
X1446018Y1244561D01*
X1415174Y1275406D01*
X1415056Y1275327D01*
X1414659Y1275921D01*
X1412735Y1277845D01*
X1411693Y1280360D01*
X1369403Y1343652D01*
X1359089Y1359089D01*
X1311999Y1390553D01*
X1280361Y1411693D01*
X1210945Y1425500D01*
X1210942Y1425500D01*
X939058Y1425500D01*
X939055Y1425500D01*
X869638Y1411693D01*
X807035Y1369863D01*
X790911Y1359089D01*
X790910Y1359089D01*
X785874Y1355723D01*
X784414Y1357908D01*
X750000Y1343652D01*
X715585Y1357908D01*
X714126Y1355723D01*
X709089Y1359089D01*
X661999Y1390553D01*
X630361Y1411693D01*
X560945Y1425500D01*
X560942Y1425500D01*
X289058Y1425500D01*
X289055Y1425500D01*
X219638Y1411693D01*
X140911Y1359089D01*
X88306Y1280359D01*
X87262Y1277839D01*
X85335Y1275913D01*
X84944Y1275327D01*
X84827Y1275405D01*
X53975Y1244559D01*
X6909Y1244562D01*
X-8983Y1251145D01*
X-37604Y1263000D01*
X-37605Y1263000D01*
X-43835Y1263000D01*
X-87322Y1281013D01*
X-94971Y1290333D01*
X-130597Y1343652D01*
X-140911Y1359089D01*
X-188001Y1390553D01*
X-219639Y1411693D01*
X-289055Y1425500D01*
X-289058Y1425500D01*
X-560942Y1425500D01*
X-560945Y1425500D01*
X-630362Y1411693D01*
X-692965Y1369863D01*
X-709089Y1359089D01*
X-709090Y1359089D01*
X-714126Y1355723D01*
X-715586Y1357908D01*
X-750000Y1343652D01*
X-784415Y1357908D01*
X-785874Y1355723D01*
X-790911Y1359089D01*
X-838001Y1390553D01*
X-869639Y1411693D01*
X-939055Y1425500D01*
X-939058Y1425500D01*
X-1210942Y1425500D01*
X-1210945Y1425500D01*
X-1280362Y1411693D01*
X-1359089Y1359089D01*
X-1405029Y1290333D01*
X-1444166Y1264182D01*
X-1456165Y1263000D01*
X-1462397Y1263000D01*
X-1491017Y1251145D01*
X-1491017Y1251146D01*
X-1506912Y1244562D01*
X-1553982Y1244561D01*
X-1584826Y1275406D01*
X-1584944Y1275327D01*
X-1585341Y1275921D01*
X-1587265Y1277845D01*
X-1588307Y1280360D01*
X-1630597Y1343652D01*
X-1640911Y1359089D01*
X-1688001Y1390553D01*
X-1719639Y1411693D01*
X-1789055Y1425500D01*
X-1789058Y1425500D01*
X-2060942Y1425500D01*
X-2060945Y1425500D01*
X-2130362Y1411693D01*
X-2192965Y1369863D01*
X-2209089Y1359089D01*
X-2209090Y1359089D01*
X-2214126Y1355723D01*
X-2215586Y1357908D01*
X-2250000Y1343652D01*
X-2284415Y1357908D01*
X-2285874Y1355723D01*
X-2290911Y1359089D01*
X-2338001Y1390553D01*
X-2369639Y1411693D01*
X-2439055Y1425500D01*
X-2439058Y1425500D01*
X-2710942Y1425500D01*
X-2710948Y1425500D01*
X-2738503Y1420019D01*
X-2784668Y1429202D01*
X-2810818Y1468340D01*
X-2812000Y1480337D01*
X-2812000Y1520174D01*
X-2793987Y1563661D01*
X-2750500Y1581674D01*
X-2738501Y1580492D01*
X-2710894Y1575000D01*
X-2650000Y1575000D01*
X-2650000Y1850000D01*
X-2500000Y1850000D01*
X-2500000Y1575000D01*
X-2439105Y1575000D01*
X-2439105Y1575001D01*
X-2369833Y1588780D01*
X-2286236Y1644637D01*
X-2284888Y1642620D01*
X-2250000Y1657070D01*
X-2215113Y1642620D01*
X-2213764Y1644637D01*
X-2130168Y1588780D01*
X-2060896Y1575001D01*
X-2060895Y1575000D01*
X-2000000Y1575000D01*
X-2000000Y1850000D01*
X-1850000Y1850000D01*
X-1850000Y1575000D01*
X-1789105Y1575000D01*
X-1789105Y1575001D01*
X-1719833Y1588780D01*
X-1641273Y1641273D01*
X-1588780Y1719833D01*
X-1575001Y1789105D01*
X-1575000Y1789105D01*
X-1575000Y1850000D01*
X-1850000Y1850000D01*
X-2000000Y1850000D01*
X-2500000Y1850000D01*
X-2650000Y1850000D01*
X-2650000Y2500000D01*
X-2500000Y2500000D01*
X-2500000Y2000000D01*
X-2000000Y2000000D01*
X-2000000Y2500000D01*
X-1850000Y2500000D01*
X-1850000Y2000000D01*
X-1575000Y2000000D01*
X-1575000Y2060895D01*
X-1575001Y2060896D01*
X-1588780Y2130168D01*
X-1644637Y2213764D01*
X-1642620Y2215113D01*
X-1657070Y2250000D01*
X-1642620Y2284888D01*
X-1644637Y2286236D01*
X-1588780Y2369833D01*
X-1575001Y2439105D01*
X-1575000Y2439105D01*
X-1575000Y2500000D01*
X-1850000Y2500000D01*
X-2000000Y2500000D01*
X-2500000Y2500000D01*
X-2650000Y2500000D01*
X-2650000Y2588500D01*
X-2631987Y2631987D01*
X-2588500Y2650000D01*
X-1575000Y2650000D01*
X-1568513Y2656487D01*
X-1525026Y2674500D01*
X-1487000Y2674500D01*
X-1443513Y2656487D01*
X-1425500Y2613000D01*
X-1425500Y2439055D01*
X-1411693Y2369639D01*
X-1355723Y2285874D01*
X-1357908Y2284415D01*
X-1343652Y2250000D01*
X-1357908Y2215586D01*
X-1355723Y2214126D01*
X-1411693Y2130362D01*
X-1425500Y2060946D01*
X-1425500Y1789055D01*
X-1411693Y1719639D01*
X-1400000Y1702140D01*
X-1359089Y1640911D01*
X-1299978Y1601415D01*
X-1280362Y1588308D01*
X-1225054Y1577308D01*
X-1210946Y1574501D01*
X-1210945Y1574500D01*
X-1210942Y1574500D01*
X-939055Y1574500D01*
X-939055Y1574501D01*
X-908935Y1580492D01*
X-869639Y1588308D01*
X-869638Y1588309D01*
X-869637Y1588309D01*
X-790911Y1640911D01*
X-790911Y1640912D01*
X-785874Y1644277D01*
X-784415Y1642093D01*
X-750000Y1656348D01*
X-715586Y1642093D01*
X-714126Y1644277D01*
X-709090Y1640912D01*
X-709089Y1640911D01*
X-699500Y1634504D01*
X-630362Y1588308D01*
X-575054Y1577308D01*
X-560946Y1574501D01*
X-560945Y1574500D01*
X-560942Y1574500D01*
X-289055Y1574500D01*
X-289055Y1574501D01*
X-258935Y1580492D01*
X-219639Y1588308D01*
X-219638Y1588309D01*
X-219637Y1588309D01*
X-140911Y1640911D01*
X-88309Y1719637D01*
X-88309Y1719638D01*
X-88308Y1719639D01*
X-74501Y1789055D01*
X-74500Y1789055D01*
X-74500Y1850000D01*
X75000Y1850000D01*
X75000Y1789105D01*
X88779Y1719833D01*
X141272Y1641273D01*
X219832Y1588780D01*
X289104Y1575001D01*
X289105Y1575000D01*
X350000Y1575000D01*
X350000Y1850000D01*
X500000Y1850000D01*
X500000Y1575000D01*
X560895Y1575000D01*
X560895Y1575001D01*
X630167Y1588780D01*
X713764Y1644637D01*
X715112Y1642620D01*
X750000Y1657070D01*
X784887Y1642620D01*
X786236Y1644637D01*
X869832Y1588780D01*
X939104Y1575001D01*
X939105Y1575000D01*
X1000000Y1575000D01*
X1000000Y1850000D01*
X1150000Y1850000D01*
X1150000Y1575000D01*
X1210895Y1575000D01*
X1210895Y1575001D01*
X1280167Y1588780D01*
X1358727Y1641273D01*
X1411220Y1719833D01*
X1424999Y1789105D01*
X1425000Y1789105D01*
X1425000Y1850000D01*
X1150000Y1850000D01*
X1000000Y1850000D01*
X500000Y1850000D01*
X350000Y1850000D01*
X75000Y1850000D01*
X-74500Y1850000D01*
X-74500Y2060945D01*
X-74501Y2060946D01*
X-88308Y2130362D01*
X-144277Y2214126D01*
X-142093Y2215586D01*
X-156348Y2250000D01*
X-142093Y2284415D01*
X-144277Y2285874D01*
X-88308Y2369639D01*
X-74501Y2439055D01*
X-74500Y2439055D01*
X-74500Y2500000D01*
X75000Y2500000D01*
X75000Y2439105D01*
X88779Y2369833D01*
X144637Y2286236D01*
X142619Y2284888D01*
X157070Y2250000D01*
X142619Y2215113D01*
X144637Y2213764D01*
X88779Y2130168D01*
X75000Y2060896D01*
X75000Y2000000D01*
X350000Y2000000D01*
X350000Y2500000D01*
X500000Y2500000D01*
X500000Y2000000D01*
X1000000Y2000000D01*
X1000000Y2500000D01*
X1150000Y2500000D01*
X1150000Y2000000D01*
X1425000Y2000000D01*
X1425000Y2060895D01*
X1424999Y2060896D01*
X1411220Y2130168D01*
X1355363Y2213764D01*
X1357380Y2215113D01*
X1342930Y2250000D01*
X1357380Y2284888D01*
X1355363Y2286236D01*
X1411220Y2369833D01*
X1424999Y2439105D01*
X1425000Y2439105D01*
X1425000Y2500000D01*
X1150000Y2500000D01*
X1000000Y2500000D01*
X500000Y2500000D01*
X350000Y2500000D01*
X75000Y2500000D01*
X-74500Y2500000D01*
X-74500Y2710945D01*
X-74501Y2710948D01*
X-79981Y2738503D01*
X-70798Y2784668D01*
X-31660Y2810818D01*
X-19663Y2812000D01*
X20173Y2812000D01*
X63660Y2793987D01*
X81673Y2750500D01*
X80491Y2738503D01*
X75000Y2710898D01*
X75000Y2650000D01*
X1425000Y2650000D01*
X1431487Y2656487D01*
X1474974Y2674500D01*
X1513000Y2674500D01*
X1556487Y2656487D01*
X1574500Y2613000D01*
X1574500Y2439055D01*
X1588307Y2369639D01*
X1644277Y2285874D01*
X1642092Y2284415D01*
X1656348Y2250000D01*
X1642092Y2215586D01*
X1644277Y2214126D01*
X1588307Y2130362D01*
X1574500Y2060946D01*
X1574500Y1789055D01*
X1588307Y1719639D01*
X1600000Y1702140D01*
X1640911Y1640911D01*
X1700022Y1601415D01*
X1719638Y1588308D01*
X1774946Y1577308D01*
X1789054Y1574501D01*
X1789055Y1574500D01*
X1789058Y1574500D01*
X2060945Y1574500D01*
X2060945Y1574501D01*
X2091065Y1580492D01*
X2130361Y1588308D01*
X2130362Y1588309D01*
X2130363Y1588309D01*
X2209089Y1640911D01*
X2209089Y1640912D01*
X2214126Y1644277D01*
X2215585Y1642093D01*
X2250000Y1656348D01*
X2284414Y1642093D01*
X2285874Y1644277D01*
X2290910Y1640912D01*
X2290911Y1640911D01*
X2300500Y1634504D01*
X2369638Y1588308D01*
X2424946Y1577308D01*
X2439054Y1574501D01*
X2439055Y1574500D01*
X2439058Y1574500D01*
X2710945Y1574500D01*
X2710945Y1574501D01*
X2741065Y1580492D01*
X2780361Y1588308D01*
X2780362Y1588309D01*
X2780363Y1588309D01*
X2859089Y1640911D01*
X2911691Y1719637D01*
X2911691Y1719638D01*
X2911692Y1719639D01*
X2925499Y1789055D01*
X2925500Y1789055D01*
X2925500Y1850000D01*
X3075000Y1850000D01*
X3075000Y1789105D01*
X3088779Y1719833D01*
X3141272Y1641273D01*
X3219832Y1588780D01*
X3289104Y1575001D01*
X3289105Y1575000D01*
X3350000Y1575000D01*
X3350000Y1850000D01*
X3075000Y1850000D01*
X2925500Y1850000D01*
X2925500Y2060945D01*
X2925499Y2060946D01*
X2911692Y2130362D01*
X2855723Y2214126D01*
X2857907Y2215586D01*
X2843652Y2250000D01*
X2857907Y2284415D01*
X2855723Y2285874D01*
X2911692Y2369639D01*
X2925499Y2439055D01*
X2925500Y2439055D01*
X2925500Y2500000D01*
X3075000Y2500000D01*
X3075000Y2439105D01*
X3088779Y2369833D01*
X3144637Y2286236D01*
X3142619Y2284888D01*
X3157070Y2250000D01*
X3142619Y2215113D01*
X3144637Y2213764D01*
X3088779Y2130168D01*
X3075000Y2060896D01*
X3075000Y2000000D01*
X3350000Y2000000D01*
X3350000Y2500000D01*
X3075000Y2500000D01*
X2925500Y2500000D01*
X2925500Y2650000D01*
X3075000Y2650000D01*
X3350000Y2650000D01*
X3350000Y2925000D01*
X3289105Y2925000D01*
X3219832Y2911221D01*
X3141272Y2858728D01*
X3088779Y2780168D01*
X3075000Y2710896D01*
X3075000Y2650000D01*
X2925500Y2650000D01*
X2925500Y2710945D01*
X2925499Y2710946D01*
X2911692Y2780362D01*
X2890552Y2812000D01*
X2859089Y2859089D01*
X2780363Y2911691D01*
X2780362Y2911692D01*
X2780360Y2911693D01*
X2777840Y2912737D01*
X2775912Y2914665D01*
X2775327Y2915056D01*
X2775404Y2915173D01*
X2744559Y2946023D01*
X2744561Y2993090D01*
X2762914Y3037396D01*
X2762934Y3037388D01*
X2762957Y3037504D01*
X2763000Y3037604D01*
X2763000Y3043836D01*
X2781013Y3087323D01*
X2790323Y3094965D01*
X2859089Y3140911D01*
X2911691Y3219637D01*
X2911691Y3219638D01*
X2911692Y3219639D01*
X2925499Y3289055D01*
X2925500Y3289055D01*
X2925500Y3560945D01*
X2925499Y3560946D01*
X2911692Y3630362D01*
X2855723Y3714126D01*
X2857907Y3715586D01*
X2843652Y3750000D01*
X2857907Y3784415D01*
X2855723Y3785874D01*
X2911692Y3869639D01*
X2925499Y3939055D01*
X2925500Y3939055D01*
X2925500Y4210945D01*
X2925499Y4210946D01*
X2911692Y4280362D01*
X2869403Y4343652D01*
X2859089Y4359089D01*
X2819591Y4385480D01*
X2780361Y4411693D01*
X2710945Y4425500D01*
X2710942Y4425500D01*
X2439058Y4425500D01*
X2439055Y4425500D01*
X2369638Y4411693D01*
X2307035Y4369863D01*
X2290911Y4359089D01*
X2290910Y4359089D01*
X2285874Y4355723D01*
X2284414Y4357908D01*
X2250000Y4343652D01*
X2215585Y4357908D01*
X2214126Y4355723D01*
X2209089Y4359089D01*
X2180270Y4378345D01*
X2130361Y4411693D01*
X2060945Y4425500D01*
X2060942Y4425500D01*
X1789058Y4425500D01*
X1789055Y4425500D01*
X1719638Y4411693D01*
X1640911Y4359089D01*
X1594971Y4290333D01*
X1555834Y4264182D01*
X1543835Y4263000D01*
X1537603Y4263000D01*
X1508983Y4251145D01*
X1508983Y4251146D01*
X1493088Y4244562D01*
X1446018Y4244561D01*
X1415174Y4275406D01*
X1415056Y4275327D01*
X1414659Y4275921D01*
X1412735Y4277845D01*
X1411693Y4280360D01*
X1369403Y4343652D01*
X1359089Y4359089D01*
X1319591Y4385480D01*
X1280361Y4411693D01*
X1210945Y4425500D01*
X1210942Y4425500D01*
X939058Y4425500D01*
X939055Y4425500D01*
X869638Y4411693D01*
X807035Y4369863D01*
X790911Y4359089D01*
X790910Y4359089D01*
X785874Y4355723D01*
X784414Y4357908D01*
X750000Y4343652D01*
X715585Y4357908D01*
X714126Y4355723D01*
X709089Y4359089D01*
X680270Y4378345D01*
X630361Y4411693D01*
X560945Y4425500D01*
X560942Y4425500D01*
X289058Y4425500D01*
X289055Y4425500D01*
X219638Y4411693D01*
X140911Y4359089D01*
X88306Y4280359D01*
X87262Y4277839D01*
X85335Y4275913D01*
X84944Y4275327D01*
X84827Y4275405D01*
X53975Y4244559D01*
X6909Y4244562D01*
X-8983Y4251145D01*
X-37604Y4263000D01*
X-37605Y4263000D01*
X-43835Y4263000D01*
X-87322Y4281013D01*
X-94971Y4290333D01*
X-130597Y4343652D01*
X-140911Y4359089D01*
X-180409Y4385480D01*
X-219639Y4411693D01*
X-289055Y4425500D01*
X-289058Y4425500D01*
X-560942Y4425500D01*
X-560945Y4425500D01*
X-630362Y4411693D01*
X-692965Y4369863D01*
X-709089Y4359089D01*
X-709090Y4359089D01*
X-714126Y4355723D01*
X-715586Y4357908D01*
X-750000Y4343652D01*
X-784415Y4357908D01*
X-785874Y4355723D01*
X-790911Y4359089D01*
X-819730Y4378345D01*
X-869639Y4411693D01*
X-939055Y4425500D01*
X-939058Y4425500D01*
X-1210942Y4425500D01*
X-1210945Y4425500D01*
X-1280362Y4411693D01*
X-1359089Y4359089D01*
X-1405029Y4290333D01*
X-1444166Y4264182D01*
X-1456165Y4263000D01*
X-1462397Y4263000D01*
X-1491017Y4251145D01*
X-1491017Y4251146D01*
X-1506912Y4244562D01*
X-1553982Y4244561D01*
X-1584826Y4275406D01*
X-1584944Y4275327D01*
X-1585341Y4275921D01*
X-1587265Y4277845D01*
X-1588307Y4280360D01*
X-1630597Y4343652D01*
X-1640911Y4359089D01*
X-1680409Y4385480D01*
X-1719639Y4411693D01*
X-1789055Y4425500D01*
X-1789058Y4425500D01*
X-2060942Y4425500D01*
X-2060945Y4425500D01*
X-2130362Y4411693D01*
X-2192965Y4369863D01*
X-2209089Y4359089D01*
X-2209090Y4359089D01*
X-2214126Y4355723D01*
X-2215586Y4357908D01*
X-2250000Y4343652D01*
X-2284415Y4357908D01*
X-2285874Y4355723D01*
X-2290911Y4359089D01*
X-2319730Y4378345D01*
X-2369639Y4411693D01*
X-2439055Y4425500D01*
X-2439058Y4425500D01*
X-2609323Y4425500D01*
X-2652810Y4443513D01*
X-2670823Y4487000D01*
X-2669888Y4497682D01*
X-2669479Y4500001D01*
X-2669479Y4500002D01*
X-2672242Y4515669D01*
X-2662056Y4561624D01*
X-2655163Y4569838D01*
X-2650000Y4575001D01*
X-2650000Y4850000D01*
X-2500000Y4850000D01*
X-2500000Y4575000D01*
X-2439105Y4575000D01*
X-2439105Y4575001D01*
X-2369833Y4588780D01*
X-2286236Y4644637D01*
X-2284888Y4642620D01*
X-2250000Y4657070D01*
X-2215113Y4642620D01*
X-2213764Y4644637D01*
X-2130168Y4588780D01*
X-2060896Y4575001D01*
X-2060895Y4575000D01*
X-2000000Y4575000D01*
X-2000000Y4850000D01*
X-1850000Y4850000D01*
X-1850000Y4575000D01*
X-1789105Y4575000D01*
X-1789105Y4575001D01*
X-1719833Y4588780D01*
X-1641273Y4641273D01*
X-1588780Y4719833D01*
X-1575001Y4789105D01*
X-1575000Y4789105D01*
X-1575000Y4850000D01*
X-1850000Y4850000D01*
X-2000000Y4850000D01*
X-2500000Y4850000D01*
X-2650000Y4850000D01*
X-2650000Y4938500D01*
X-2631987Y4981987D01*
X-2588500Y5000000D01*
X-1575000Y5000000D01*
X-1575000Y5060895D01*
X-1575001Y5060896D01*
X-1587951Y5126002D01*
X-1578769Y5172167D01*
X-1539631Y5198318D01*
X-1527633Y5199500D01*
X-1472877Y5199500D01*
X-1429390Y5181487D01*
G37*
%TD.AperFunction*%
%TD*%
%TA.AperFunction,Conductor*%
%TO.N,VCC*%
G36*
X-3100741Y4145320D02*
G01*
X-3093775Y4142434D01*
X-3087725Y4141231D01*
X-3076195Y4137733D01*
X-3043030Y4123995D01*
X-3043029Y4123995D01*
X-3043027Y4123994D01*
X-3009594Y4117344D01*
X-2993099Y4114062D01*
X-2987000Y4114062D01*
X-2943513Y4096049D01*
X-2925500Y4052562D01*
X-2925500Y3939055D01*
X-2911693Y3869639D01*
X-2855723Y3785874D01*
X-2857908Y3784415D01*
X-2843652Y3750000D01*
X-2857908Y3715586D01*
X-2855723Y3714126D01*
X-2859089Y3709090D01*
X-2859089Y3709089D01*
X-2869863Y3692965D01*
X-2911693Y3630362D01*
X-2925500Y3560946D01*
X-2925500Y3289055D01*
X-2911693Y3219639D01*
X-2890681Y3188193D01*
X-2859089Y3140911D01*
X-2834192Y3124276D01*
X-2780362Y3088308D01*
X-2725054Y3077308D01*
X-2710946Y3074501D01*
X-2710945Y3074500D01*
X-2710942Y3074500D01*
X-2439055Y3074500D01*
X-2439055Y3074501D01*
X-2411214Y3080039D01*
X-2369639Y3088308D01*
X-2369638Y3088309D01*
X-2369637Y3088309D01*
X-2290911Y3140911D01*
X-2290911Y3140912D01*
X-2285874Y3144277D01*
X-2284415Y3142093D01*
X-2250000Y3156348D01*
X-2215586Y3142093D01*
X-2214126Y3144277D01*
X-2209090Y3140912D01*
X-2209089Y3140911D01*
X-2203629Y3137263D01*
X-2130362Y3088308D01*
X-2075054Y3077308D01*
X-2060946Y3074501D01*
X-2060945Y3074500D01*
X-2060942Y3074500D01*
X-1789055Y3074500D01*
X-1789055Y3074501D01*
X-1761214Y3080039D01*
X-1719639Y3088308D01*
X-1719638Y3088309D01*
X-1719637Y3088309D01*
X-1640911Y3140911D01*
X-1588309Y3219637D01*
X-1588309Y3219638D01*
X-1588308Y3219639D01*
X-1574501Y3289055D01*
X-1574500Y3289055D01*
X-1574500Y3350000D01*
X-1425000Y3350000D01*
X-1425000Y3289105D01*
X-1411221Y3219833D01*
X-1358728Y3141273D01*
X-1280168Y3088780D01*
X-1210896Y3075001D01*
X-1210895Y3075000D01*
X-1150000Y3075000D01*
X-1150000Y3350000D01*
X-1000000Y3350000D01*
X-1000000Y3075000D01*
X-939105Y3075000D01*
X-939105Y3075001D01*
X-869833Y3088780D01*
X-786236Y3144637D01*
X-784888Y3142620D01*
X-750000Y3157070D01*
X-715113Y3142620D01*
X-713764Y3144637D01*
X-630168Y3088780D01*
X-560896Y3075001D01*
X-560895Y3075000D01*
X-500000Y3075000D01*
X-500000Y3350000D01*
X-350000Y3350000D01*
X-350000Y3075000D01*
X-289105Y3075000D01*
X-289105Y3075001D01*
X-219833Y3088780D01*
X-141273Y3141273D01*
X-88780Y3219833D01*
X-75001Y3289105D01*
X-75000Y3289105D01*
X-75000Y3350000D01*
X-350000Y3350000D01*
X-500000Y3350000D01*
X-1000000Y3350000D01*
X-1150000Y3350000D01*
X-1425000Y3350000D01*
X-1574500Y3350000D01*
X-1574500Y3560945D01*
X-1574501Y3560946D01*
X-1588308Y3630362D01*
X-1612461Y3666509D01*
X-1640911Y3709089D01*
X-1640912Y3709090D01*
X-1644277Y3714126D01*
X-1642093Y3715586D01*
X-1656348Y3750000D01*
X-1642093Y3784415D01*
X-1644277Y3785874D01*
X-1634878Y3799940D01*
X-1588309Y3869637D01*
X-1588309Y3869638D01*
X-1588308Y3869639D01*
X-1574501Y3939055D01*
X-1574500Y3939055D01*
X-1574500Y4000000D01*
X-1425000Y4000000D01*
X-1425000Y3939105D01*
X-1411221Y3869833D01*
X-1355363Y3786236D01*
X-1357381Y3784888D01*
X-1342930Y3750000D01*
X-1357381Y3715113D01*
X-1355363Y3713764D01*
X-1411221Y3630168D01*
X-1425000Y3560896D01*
X-1425000Y3500000D01*
X-1150000Y3500000D01*
X-1150000Y4000000D01*
X-1000000Y4000000D01*
X-1000000Y3500000D01*
X-500000Y3500000D01*
X-500000Y4000000D01*
X-350000Y4000000D01*
X-350000Y3500000D01*
X-75000Y3500000D01*
X-75000Y3560895D01*
X-75001Y3560896D01*
X-88780Y3630168D01*
X-144637Y3713764D01*
X-142620Y3715113D01*
X-157070Y3750000D01*
X-142620Y3784888D01*
X-144637Y3786236D01*
X-88780Y3869833D01*
X-75001Y3939105D01*
X-75000Y3939105D01*
X-75000Y4000000D01*
X-350000Y4000000D01*
X-500000Y4000000D01*
X-1000000Y4000000D01*
X-1150000Y4000000D01*
X-1425000Y4000000D01*
X-1574500Y4000000D01*
X-1574500Y4052562D01*
X-1556487Y4096049D01*
X-1513001Y4114062D01*
X-1506909Y4114062D01*
X-1506907Y4114062D01*
X-1506907Y4114063D01*
X-1456973Y4123995D01*
X-1437788Y4131943D01*
X-1434877Y4132852D01*
X-1434942Y4133034D01*
X-1397573Y4146405D01*
X-1376854Y4150000D01*
X-124274Y4150000D01*
X-100741Y4145320D01*
X-93775Y4142434D01*
X-87725Y4141231D01*
X-76195Y4137733D01*
X-43030Y4123995D01*
X-43029Y4123995D01*
X-43027Y4123994D01*
X-9594Y4117344D01*
X6901Y4114062D01*
X13000Y4114062D01*
X56487Y4096049D01*
X74500Y4052562D01*
X74500Y3939055D01*
X88307Y3869639D01*
X144277Y3785874D01*
X142092Y3784415D01*
X156348Y3750000D01*
X142092Y3715586D01*
X144277Y3714126D01*
X140911Y3709090D01*
X140911Y3709089D01*
X130137Y3692965D01*
X88307Y3630362D01*
X74500Y3560946D01*
X74500Y3289055D01*
X88307Y3219639D01*
X109319Y3188193D01*
X140911Y3140911D01*
X165808Y3124276D01*
X219638Y3088308D01*
X274946Y3077308D01*
X289054Y3074501D01*
X289055Y3074500D01*
X289058Y3074500D01*
X560945Y3074500D01*
X560945Y3074501D01*
X588786Y3080039D01*
X630361Y3088308D01*
X630362Y3088309D01*
X630363Y3088309D01*
X709089Y3140911D01*
X709089Y3140912D01*
X714126Y3144277D01*
X715585Y3142093D01*
X750000Y3156348D01*
X784414Y3142093D01*
X785874Y3144277D01*
X790910Y3140912D01*
X790911Y3140911D01*
X796371Y3137263D01*
X869638Y3088308D01*
X924946Y3077308D01*
X939054Y3074501D01*
X939055Y3074500D01*
X939058Y3074500D01*
X1210945Y3074500D01*
X1210945Y3074501D01*
X1238786Y3080039D01*
X1280361Y3088308D01*
X1280362Y3088309D01*
X1280363Y3088309D01*
X1359089Y3140911D01*
X1411691Y3219637D01*
X1411691Y3219638D01*
X1411692Y3219639D01*
X1425499Y3289055D01*
X1425500Y3289055D01*
X1425500Y3350000D01*
X1575000Y3350000D01*
X1575000Y3289105D01*
X1588779Y3219833D01*
X1641272Y3141273D01*
X1719832Y3088780D01*
X1789104Y3075001D01*
X1789105Y3075000D01*
X1850000Y3075000D01*
X1850000Y3350000D01*
X2000000Y3350000D01*
X2000000Y3075000D01*
X2060895Y3075000D01*
X2060895Y3075001D01*
X2130167Y3088780D01*
X2213764Y3144637D01*
X2215112Y3142620D01*
X2250000Y3157070D01*
X2284887Y3142620D01*
X2286236Y3144637D01*
X2369832Y3088780D01*
X2439104Y3075001D01*
X2439105Y3075000D01*
X2500000Y3075000D01*
X2500000Y3350000D01*
X2000000Y3350000D01*
X1850000Y3350000D01*
X1575000Y3350000D01*
X1425500Y3350000D01*
X1425500Y3560945D01*
X1425499Y3560946D01*
X1411692Y3630362D01*
X1387539Y3666509D01*
X1359089Y3709089D01*
X1359088Y3709090D01*
X1355723Y3714126D01*
X1357907Y3715586D01*
X1343652Y3750000D01*
X1357907Y3784415D01*
X1355723Y3785874D01*
X1365122Y3799940D01*
X1411691Y3869637D01*
X1411691Y3869638D01*
X1411692Y3869639D01*
X1425499Y3939055D01*
X1425500Y3939055D01*
X1425500Y4000000D01*
X1575000Y4000000D01*
X1575000Y3939105D01*
X1588779Y3869833D01*
X1644637Y3786236D01*
X1642619Y3784888D01*
X1657070Y3750000D01*
X1642619Y3715113D01*
X1644637Y3713764D01*
X1588779Y3630168D01*
X1575000Y3560896D01*
X1575000Y3500000D01*
X1850000Y3500000D01*
X1850000Y4000000D01*
X2000000Y4000000D01*
X2000000Y3500000D01*
X2500000Y3500000D01*
X2500000Y4000000D01*
X2000000Y4000000D01*
X1850000Y4000000D01*
X1575000Y4000000D01*
X1425500Y4000000D01*
X1425500Y4052562D01*
X1443513Y4096049D01*
X1486999Y4114062D01*
X1493091Y4114062D01*
X1493093Y4114062D01*
X1493093Y4114063D01*
X1543027Y4123995D01*
X1562212Y4131943D01*
X1565123Y4132852D01*
X1565058Y4133034D01*
X1602427Y4146405D01*
X1623146Y4150000D01*
X2588500Y4150000D01*
X2631987Y4131987D01*
X2650000Y4088500D01*
X2650000Y3124276D01*
X2645320Y3100744D01*
X2642434Y3093776D01*
X2642433Y3093775D01*
X2641229Y3087722D01*
X2637731Y3076194D01*
X2623997Y3043038D01*
X2623997Y3043037D01*
X2623996Y3043033D01*
X2623996Y3043032D01*
X2614061Y2993096D01*
X2614061Y2993093D01*
X2614061Y2987000D01*
X2596048Y2943513D01*
X2552561Y2925500D01*
X2439055Y2925500D01*
X2369638Y2911693D01*
X2313609Y2874255D01*
X2290911Y2859089D01*
X2290910Y2859089D01*
X2285874Y2855723D01*
X2284414Y2857908D01*
X2250000Y2843652D01*
X2215585Y2857908D01*
X2214126Y2855723D01*
X2209089Y2859089D01*
X2162562Y2890177D01*
X2130361Y2911693D01*
X2060945Y2925500D01*
X2060942Y2925500D01*
X1789058Y2925500D01*
X1789055Y2925500D01*
X1719638Y2911693D01*
X1640910Y2859089D01*
X1616833Y2823055D01*
X1577695Y2796905D01*
X1553700Y2796905D01*
X1513003Y2805000D01*
X1513000Y2805000D01*
X1474974Y2805000D01*
X1474971Y2805000D01*
X1444888Y2799016D01*
X1398723Y2808198D01*
X1381754Y2825167D01*
X1359089Y2859089D01*
X1280361Y2911693D01*
X1210945Y2925500D01*
X1210942Y2925500D01*
X939058Y2925500D01*
X939055Y2925500D01*
X869638Y2911693D01*
X813609Y2874255D01*
X790911Y2859089D01*
X790910Y2859089D01*
X785874Y2855723D01*
X784414Y2857908D01*
X750000Y2843652D01*
X715585Y2857908D01*
X714126Y2855723D01*
X709089Y2859089D01*
X662562Y2890177D01*
X630361Y2911693D01*
X560945Y2925500D01*
X560942Y2925500D01*
X289058Y2925500D01*
X289055Y2925500D01*
X219638Y2911693D01*
X201178Y2899358D01*
X155012Y2890177D01*
X128423Y2902608D01*
X113599Y2914554D01*
X70117Y2932565D01*
X70107Y2932568D01*
X20176Y2942500D01*
X20173Y2942500D01*
X-19663Y2942500D01*
X-19678Y2942500D01*
X-32452Y2941872D01*
X-32496Y2941869D01*
X-44455Y2940690D01*
X-104163Y2919325D01*
X-133447Y2899759D01*
X-179613Y2890578D01*
X-201778Y2899759D01*
X-219639Y2911693D01*
X-289055Y2925500D01*
X-289058Y2925500D01*
X-560942Y2925500D01*
X-560945Y2925500D01*
X-630362Y2911693D01*
X-686391Y2874255D01*
X-709089Y2859089D01*
X-709090Y2859089D01*
X-714126Y2855723D01*
X-715586Y2857908D01*
X-750000Y2843652D01*
X-784415Y2857908D01*
X-785874Y2855723D01*
X-790911Y2859089D01*
X-837438Y2890177D01*
X-869639Y2911693D01*
X-939055Y2925500D01*
X-939058Y2925500D01*
X-1210942Y2925500D01*
X-1210945Y2925500D01*
X-1280362Y2911693D01*
X-1359090Y2859089D01*
X-1383167Y2823055D01*
X-1422305Y2796905D01*
X-1446300Y2796905D01*
X-1486997Y2805000D01*
X-1487000Y2805000D01*
X-1525026Y2805000D01*
X-1525029Y2805000D01*
X-1555112Y2799016D01*
X-1601277Y2808198D01*
X-1618246Y2825167D01*
X-1640911Y2859089D01*
X-1719639Y2911693D01*
X-1789055Y2925500D01*
X-1789058Y2925500D01*
X-2060942Y2925500D01*
X-2060945Y2925500D01*
X-2130362Y2911693D01*
X-2186391Y2874255D01*
X-2209089Y2859089D01*
X-2209090Y2859089D01*
X-2214126Y2855723D01*
X-2215586Y2857908D01*
X-2250000Y2843652D01*
X-2284415Y2857908D01*
X-2285874Y2855723D01*
X-2290911Y2859089D01*
X-2337438Y2890177D01*
X-2369639Y2911693D01*
X-2439055Y2925500D01*
X-2439058Y2925500D01*
X-2710942Y2925500D01*
X-2710945Y2925500D01*
X-2780362Y2911693D01*
X-2859089Y2859089D01*
X-2911693Y2780362D01*
X-2925500Y2710946D01*
X-2925500Y2439055D01*
X-2911693Y2369639D01*
X-2855723Y2285874D01*
X-2857908Y2284415D01*
X-2843652Y2250000D01*
X-2857908Y2215586D01*
X-2855723Y2214126D01*
X-2911693Y2130362D01*
X-2925500Y2060946D01*
X-2925500Y1789055D01*
X-2911692Y1719638D01*
X-2899360Y1701182D01*
X-2890177Y1655016D01*
X-2902607Y1628426D01*
X-2914554Y1613601D01*
X-2932565Y1570119D01*
X-2932568Y1570109D01*
X-2942500Y1520178D01*
X-2942500Y1480323D01*
X-2941872Y1467549D01*
X-2941869Y1467505D01*
X-2940690Y1455546D01*
X-2940689Y1455544D01*
X-2924830Y1411221D01*
X-2919325Y1395838D01*
X-2919324Y1395837D01*
X-2899759Y1366554D01*
X-2890577Y1320389D01*
X-2899759Y1298222D01*
X-2911691Y1280365D01*
X-2911693Y1280360D01*
X-2925500Y1210946D01*
X-2925500Y939055D01*
X-2911693Y869639D01*
X-2855723Y785874D01*
X-2857908Y784415D01*
X-2843652Y750000D01*
X-2857908Y715586D01*
X-2855723Y714126D01*
X-2859089Y709090D01*
X-2859089Y709089D01*
X-2869863Y692965D01*
X-2911693Y630362D01*
X-2925500Y560946D01*
X-2925500Y289055D01*
X-2911693Y219639D01*
X-2890681Y188193D01*
X-2859089Y140911D01*
X-2834192Y124276D01*
X-2780362Y88308D01*
X-2725054Y77308D01*
X-2710946Y74501D01*
X-2710945Y74500D01*
X-2710942Y74500D01*
X-2439055Y74500D01*
X-2439055Y74501D01*
X-2411214Y80039D01*
X-2369639Y88308D01*
X-2369638Y88309D01*
X-2369637Y88309D01*
X-2290911Y140911D01*
X-2290911Y140912D01*
X-2285874Y144277D01*
X-2284415Y142093D01*
X-2250000Y156348D01*
X-2215586Y142093D01*
X-2214126Y144277D01*
X-2209090Y140912D01*
X-2209089Y140911D01*
X-2203629Y137263D01*
X-2130362Y88308D01*
X-2075054Y77308D01*
X-2060946Y74501D01*
X-2060945Y74500D01*
X-2060942Y74500D01*
X-1789055Y74500D01*
X-1789055Y74501D01*
X-1761214Y80039D01*
X-1719639Y88308D01*
X-1719638Y88309D01*
X-1719637Y88309D01*
X-1640911Y140911D01*
X-1588309Y219637D01*
X-1588309Y219638D01*
X-1588308Y219639D01*
X-1574501Y289055D01*
X-1574500Y289055D01*
X-1574500Y350000D01*
X-1425000Y350000D01*
X-1425000Y289105D01*
X-1411221Y219833D01*
X-1358728Y141273D01*
X-1280168Y88780D01*
X-1210896Y75001D01*
X-1210895Y75000D01*
X-1150000Y75000D01*
X-1150000Y350000D01*
X-1000000Y350000D01*
X-1000000Y75000D01*
X-939105Y75000D01*
X-939105Y75001D01*
X-869833Y88780D01*
X-786236Y144637D01*
X-784888Y142620D01*
X-750000Y157070D01*
X-715113Y142620D01*
X-713764Y144637D01*
X-630168Y88780D01*
X-560896Y75001D01*
X-560895Y75000D01*
X-500000Y75000D01*
X-500000Y350000D01*
X-350000Y350000D01*
X-350000Y75000D01*
X-289105Y75000D01*
X-289105Y75001D01*
X-219833Y88780D01*
X-141273Y141273D01*
X-88780Y219833D01*
X-75001Y289105D01*
X-75000Y289105D01*
X-75000Y350000D01*
X-350000Y350000D01*
X-500000Y350000D01*
X-1000000Y350000D01*
X-1150000Y350000D01*
X-1425000Y350000D01*
X-1574500Y350000D01*
X-1574500Y560945D01*
X-1574501Y560946D01*
X-1588308Y630362D01*
X-1612461Y666509D01*
X-1640911Y709089D01*
X-1640912Y709090D01*
X-1644277Y714126D01*
X-1642093Y715586D01*
X-1656348Y750000D01*
X-1642093Y784415D01*
X-1644277Y785874D01*
X-1634878Y799940D01*
X-1588309Y869637D01*
X-1588309Y869638D01*
X-1588308Y869639D01*
X-1574501Y939055D01*
X-1574500Y939055D01*
X-1574500Y1000000D01*
X-1425000Y1000000D01*
X-1425000Y939105D01*
X-1411221Y869833D01*
X-1355363Y786236D01*
X-1357381Y784888D01*
X-1342930Y750000D01*
X-1357381Y715113D01*
X-1355363Y713764D01*
X-1411221Y630168D01*
X-1425000Y560896D01*
X-1425000Y500000D01*
X-1150000Y500000D01*
X-1150000Y1000000D01*
X-1000000Y1000000D01*
X-1000000Y500000D01*
X-500000Y500000D01*
X-500000Y1000000D01*
X-350000Y1000000D01*
X-350000Y500000D01*
X-75000Y500000D01*
X-75000Y560895D01*
X-75001Y560896D01*
X-88780Y630168D01*
X-144637Y713764D01*
X-142620Y715113D01*
X-157070Y750000D01*
X-142620Y784888D01*
X-144637Y786236D01*
X-88780Y869833D01*
X-75001Y939105D01*
X-75000Y939105D01*
X-75000Y1000000D01*
X-350000Y1000000D01*
X-500000Y1000000D01*
X-1000000Y1000000D01*
X-1150000Y1000000D01*
X-1425000Y1000000D01*
X-1574500Y1000000D01*
X-1574500Y1052562D01*
X-1556487Y1096049D01*
X-1513001Y1114062D01*
X-1506909Y1114062D01*
X-1506907Y1114062D01*
X-1506907Y1114063D01*
X-1456973Y1123995D01*
X-1437788Y1131943D01*
X-1434877Y1132852D01*
X-1434942Y1133034D01*
X-1397573Y1146405D01*
X-1376854Y1150000D01*
X-124274Y1150000D01*
X-100741Y1145320D01*
X-93775Y1142434D01*
X-87725Y1141231D01*
X-76195Y1137733D01*
X-43030Y1123995D01*
X-43029Y1123995D01*
X-43027Y1123994D01*
X-9594Y1117344D01*
X6901Y1114062D01*
X13000Y1114062D01*
X56487Y1096049D01*
X74500Y1052562D01*
X74500Y939055D01*
X88307Y869639D01*
X144277Y785874D01*
X142092Y784415D01*
X156348Y750000D01*
X142092Y715586D01*
X144277Y714126D01*
X140911Y709090D01*
X140911Y709089D01*
X130137Y692965D01*
X88307Y630362D01*
X74500Y560946D01*
X74500Y289055D01*
X88307Y219639D01*
X109319Y188193D01*
X140911Y140911D01*
X165808Y124276D01*
X219638Y88308D01*
X274946Y77308D01*
X289054Y74501D01*
X289055Y74500D01*
X289058Y74500D01*
X560945Y74500D01*
X560945Y74501D01*
X588786Y80039D01*
X630361Y88308D01*
X630362Y88309D01*
X630363Y88309D01*
X709089Y140911D01*
X709089Y140912D01*
X714126Y144277D01*
X715585Y142093D01*
X750000Y156348D01*
X784414Y142093D01*
X785874Y144277D01*
X790910Y140912D01*
X790911Y140911D01*
X796371Y137263D01*
X869638Y88308D01*
X924946Y77308D01*
X939054Y74501D01*
X939055Y74500D01*
X939058Y74500D01*
X1210945Y74500D01*
X1210945Y74501D01*
X1238786Y80039D01*
X1280361Y88308D01*
X1280362Y88309D01*
X1280363Y88309D01*
X1359089Y140911D01*
X1411691Y219637D01*
X1411691Y219638D01*
X1411692Y219639D01*
X1425499Y289055D01*
X1425500Y289055D01*
X1425500Y350000D01*
X1575000Y350000D01*
X1575000Y289105D01*
X1588779Y219833D01*
X1641272Y141273D01*
X1719832Y88780D01*
X1789104Y75001D01*
X1789105Y75000D01*
X1850000Y75000D01*
X1850000Y350000D01*
X2000000Y350000D01*
X2000000Y75000D01*
X2060895Y75000D01*
X2060895Y75001D01*
X2130167Y88780D01*
X2213764Y144637D01*
X2215112Y142620D01*
X2250000Y157070D01*
X2284887Y142620D01*
X2286236Y144637D01*
X2369832Y88780D01*
X2439104Y75001D01*
X2439105Y75000D01*
X2500000Y75000D01*
X2500000Y350000D01*
X2000000Y350000D01*
X1850000Y350000D01*
X1575000Y350000D01*
X1425500Y350000D01*
X1425500Y560945D01*
X1425499Y560946D01*
X1411692Y630362D01*
X1387539Y666509D01*
X1359089Y709089D01*
X1359088Y709090D01*
X1355723Y714126D01*
X1357907Y715586D01*
X1343652Y750000D01*
X1357907Y784415D01*
X1355723Y785874D01*
X1365122Y799940D01*
X1411691Y869637D01*
X1411691Y869638D01*
X1411692Y869639D01*
X1425499Y939055D01*
X1425500Y939055D01*
X1425500Y1000000D01*
X1575000Y1000000D01*
X1575000Y939105D01*
X1588779Y869833D01*
X1644637Y786236D01*
X1642619Y784888D01*
X1657070Y750000D01*
X1642619Y715113D01*
X1644637Y713764D01*
X1588779Y630168D01*
X1575000Y560896D01*
X1575000Y500000D01*
X1850000Y500000D01*
X1850000Y1000000D01*
X2000000Y1000000D01*
X2000000Y500000D01*
X2500000Y500000D01*
X2500000Y1000000D01*
X2000000Y1000000D01*
X1850000Y1000000D01*
X1575000Y1000000D01*
X1425500Y1000000D01*
X1425500Y1052562D01*
X1443513Y1096049D01*
X1486999Y1114062D01*
X1493091Y1114062D01*
X1493093Y1114062D01*
X1493093Y1114063D01*
X1543027Y1123995D01*
X1562212Y1131943D01*
X1565123Y1132852D01*
X1565058Y1133034D01*
X1602427Y1146405D01*
X1623146Y1150000D01*
X2588500Y1150000D01*
X2631987Y1131987D01*
X2650000Y1088500D01*
X2650000Y124276D01*
X2645320Y100744D01*
X2642434Y93776D01*
X2642433Y93775D01*
X2641229Y87722D01*
X2637731Y76194D01*
X2623997Y43038D01*
X2623997Y43037D01*
X2623996Y43033D01*
X2623996Y43032D01*
X2614061Y-6904D01*
X2614061Y-6907D01*
X2614061Y-13000D01*
X2596048Y-56487D01*
X2552561Y-74500D01*
X2439055Y-74500D01*
X2369638Y-88307D01*
X2313609Y-125745D01*
X2290911Y-140911D01*
X2290910Y-140911D01*
X2285874Y-144277D01*
X2284414Y-142092D01*
X2250000Y-156348D01*
X2215585Y-142092D01*
X2214126Y-144277D01*
X2209089Y-140911D01*
X2162562Y-109823D01*
X2130361Y-88307D01*
X2060945Y-74500D01*
X2060942Y-74500D01*
X1789058Y-74500D01*
X1789055Y-74500D01*
X1719638Y-88307D01*
X1640910Y-140911D01*
X1616833Y-176945D01*
X1577695Y-203095D01*
X1553700Y-203095D01*
X1513003Y-195000D01*
X1513000Y-195000D01*
X1474974Y-195000D01*
X1474971Y-195000D01*
X1444888Y-200984D01*
X1398723Y-191802D01*
X1381754Y-174833D01*
X1359089Y-140911D01*
X1280361Y-88307D01*
X1210945Y-74500D01*
X1210942Y-74500D01*
X939058Y-74500D01*
X939055Y-74500D01*
X869638Y-88307D01*
X813609Y-125745D01*
X790911Y-140911D01*
X790910Y-140911D01*
X785874Y-144277D01*
X784414Y-142092D01*
X750000Y-156348D01*
X715585Y-142092D01*
X714126Y-144277D01*
X709089Y-140911D01*
X662562Y-109823D01*
X630361Y-88307D01*
X560945Y-74500D01*
X560942Y-74500D01*
X289058Y-74500D01*
X289055Y-74500D01*
X219638Y-88307D01*
X201178Y-100642D01*
X155012Y-109823D01*
X128423Y-97392D01*
X113599Y-85446D01*
X70117Y-67435D01*
X70107Y-67432D01*
X20176Y-57500D01*
X20173Y-57500D01*
X-19663Y-57500D01*
X-19678Y-57500D01*
X-32452Y-58128D01*
X-32496Y-58131D01*
X-44455Y-59310D01*
X-104163Y-80675D01*
X-133447Y-100241D01*
X-179613Y-109422D01*
X-201778Y-100241D01*
X-219639Y-88307D01*
X-289055Y-74500D01*
X-289058Y-74500D01*
X-560942Y-74500D01*
X-560945Y-74500D01*
X-630362Y-88307D01*
X-686391Y-125745D01*
X-709089Y-140911D01*
X-709090Y-140911D01*
X-714126Y-144277D01*
X-715586Y-142092D01*
X-750000Y-156348D01*
X-784415Y-142092D01*
X-785874Y-144277D01*
X-790911Y-140911D01*
X-837438Y-109823D01*
X-869639Y-88307D01*
X-939055Y-74500D01*
X-939058Y-74500D01*
X-1210942Y-74500D01*
X-1210945Y-74500D01*
X-1280362Y-88307D01*
X-1359090Y-140911D01*
X-1383167Y-176945D01*
X-1422305Y-203095D01*
X-1446300Y-203095D01*
X-1486997Y-195000D01*
X-1487000Y-195000D01*
X-1525026Y-195000D01*
X-1525029Y-195000D01*
X-1555112Y-200984D01*
X-1601277Y-191802D01*
X-1618246Y-174833D01*
X-1640911Y-140911D01*
X-1719639Y-88307D01*
X-1789055Y-74500D01*
X-1789058Y-74500D01*
X-2060942Y-74500D01*
X-2060945Y-74500D01*
X-2130362Y-88307D01*
X-2186391Y-125745D01*
X-2209089Y-140911D01*
X-2209090Y-140911D01*
X-2214126Y-144277D01*
X-2215586Y-142092D01*
X-2250000Y-156348D01*
X-2284415Y-142092D01*
X-2285874Y-144277D01*
X-2290911Y-140911D01*
X-2337438Y-109823D01*
X-2369639Y-88307D01*
X-2439055Y-74500D01*
X-2439058Y-74500D01*
X-2710942Y-74500D01*
X-2710945Y-74500D01*
X-2780362Y-88307D01*
X-2859089Y-140911D01*
X-2911693Y-219638D01*
X-2925500Y-289054D01*
X-2925500Y-560945D01*
X-2911693Y-630361D01*
X-2855723Y-714126D01*
X-2857908Y-715585D01*
X-2843652Y-750000D01*
X-2857908Y-784414D01*
X-2855723Y-785874D01*
X-2911693Y-869638D01*
X-2925500Y-939054D01*
X-2925500Y-1210945D01*
X-2915420Y-1261623D01*
X-2924603Y-1307789D01*
X-2941567Y-1324754D01*
X-2947206Y-1328522D01*
X-2947209Y-1328524D01*
X-3027887Y-1409202D01*
X-3071374Y-1427215D01*
X-3077107Y-1424840D01*
X-3073967Y-1440624D01*
X-3090798Y-1472113D01*
X-3171115Y-1552430D01*
X-3171120Y-1552436D01*
X-3177676Y-1561275D01*
X-3218052Y-1585470D01*
X-3239068Y-1584953D01*
X-3289105Y-1575000D01*
X-3350000Y-1575000D01*
X-3350000Y-2925000D01*
X-3289106Y-2925000D01*
X-3239094Y-2915051D01*
X-3192928Y-2924233D01*
X-3175960Y-2941201D01*
X-3171414Y-2948005D01*
X-3093012Y-3026407D01*
X-3074999Y-3069894D01*
X-3079372Y-3080450D01*
X-3057898Y-3076179D01*
X-3026409Y-3093010D01*
X-2986637Y-3132781D01*
X-2947648Y-3171770D01*
X-2939297Y-3177965D01*
X-2915099Y-3218338D01*
X-2915615Y-3239359D01*
X-2925500Y-3289054D01*
X-2925500Y-3560945D01*
X-2911693Y-3630361D01*
X-2855723Y-3714126D01*
X-2857908Y-3715585D01*
X-2843652Y-3750000D01*
X-2857908Y-3784414D01*
X-2855723Y-3785874D01*
X-2911693Y-3869638D01*
X-2925500Y-3939054D01*
X-2925500Y-4210945D01*
X-2911693Y-4280361D01*
X-2900000Y-4297860D01*
X-2859089Y-4359089D01*
X-2799978Y-4398585D01*
X-2780362Y-4411692D01*
X-2725054Y-4422692D01*
X-2710946Y-4425499D01*
X-2710945Y-4425500D01*
X-2710942Y-4425500D01*
X-2439055Y-4425500D01*
X-2439055Y-4425499D01*
X-2411214Y-4419961D01*
X-2369639Y-4411692D01*
X-2369638Y-4411691D01*
X-2369637Y-4411691D01*
X-2290911Y-4359089D01*
X-2290911Y-4359088D01*
X-2285874Y-4355723D01*
X-2284415Y-4357907D01*
X-2250000Y-4343652D01*
X-2215586Y-4357907D01*
X-2214126Y-4355723D01*
X-2209090Y-4359088D01*
X-2209089Y-4359089D01*
X-2199500Y-4365496D01*
X-2130362Y-4411692D01*
X-2075054Y-4422692D01*
X-2060946Y-4425499D01*
X-2060945Y-4425500D01*
X-2060942Y-4425500D01*
X-1789055Y-4425500D01*
X-1789055Y-4425499D01*
X-1761214Y-4419961D01*
X-1719639Y-4411692D01*
X-1719638Y-4411691D01*
X-1719637Y-4411691D01*
X-1640911Y-4359089D01*
X-1588309Y-4280363D01*
X-1588309Y-4280362D01*
X-1588308Y-4280361D01*
X-1574501Y-4210945D01*
X-1574500Y-4210945D01*
X-1425500Y-4210945D01*
X-1411693Y-4280361D01*
X-1400000Y-4297860D01*
X-1359089Y-4359089D01*
X-1299978Y-4398585D01*
X-1280362Y-4411692D01*
X-1225054Y-4422692D01*
X-1210946Y-4425499D01*
X-1210945Y-4425500D01*
X-1210942Y-4425500D01*
X-939055Y-4425500D01*
X-939055Y-4425499D01*
X-911214Y-4419961D01*
X-869639Y-4411692D01*
X-869638Y-4411691D01*
X-869637Y-4411691D01*
X-790911Y-4359089D01*
X-790911Y-4359088D01*
X-785874Y-4355723D01*
X-784415Y-4357907D01*
X-750000Y-4343652D01*
X-715586Y-4357907D01*
X-714126Y-4355723D01*
X-709090Y-4359088D01*
X-709089Y-4359089D01*
X-699500Y-4365496D01*
X-630362Y-4411692D01*
X-575054Y-4422692D01*
X-560946Y-4425499D01*
X-560945Y-4425500D01*
X-560942Y-4425500D01*
X-289055Y-4425500D01*
X-289055Y-4425499D01*
X-261214Y-4419961D01*
X-219639Y-4411692D01*
X-219638Y-4411691D01*
X-219637Y-4411691D01*
X-140911Y-4359089D01*
X-88309Y-4280363D01*
X-88309Y-4280362D01*
X-88308Y-4280361D01*
X-74501Y-4210945D01*
X-74500Y-4210945D01*
X-74500Y-3939055D01*
X-74501Y-3939054D01*
X-88308Y-3869638D01*
X-144277Y-3785874D01*
X-142093Y-3784414D01*
X-156348Y-3750000D01*
X-142093Y-3715585D01*
X-144277Y-3714126D01*
X-88308Y-3630361D01*
X-74501Y-3560945D01*
X-74500Y-3560945D01*
X-74500Y-3289055D01*
X-74501Y-3289054D01*
X-88308Y-3219638D01*
X-113326Y-3182196D01*
X-140911Y-3140911D01*
X-212601Y-3093010D01*
X-219639Y-3088307D01*
X-289055Y-3074500D01*
X-289058Y-3074500D01*
X-560942Y-3074500D01*
X-560945Y-3074500D01*
X-630362Y-3088307D01*
X-692675Y-3129944D01*
X-709089Y-3140911D01*
X-709090Y-3140911D01*
X-714126Y-3144277D01*
X-715586Y-3142092D01*
X-750000Y-3156348D01*
X-784415Y-3142092D01*
X-785874Y-3144277D01*
X-790911Y-3140911D01*
X-820666Y-3121030D01*
X-869639Y-3088307D01*
X-939055Y-3074500D01*
X-939058Y-3074500D01*
X-1210942Y-3074500D01*
X-1210945Y-3074500D01*
X-1280362Y-3088307D01*
X-1331556Y-3122514D01*
X-1368918Y-3129944D01*
X-1367123Y-3134277D01*
X-1377487Y-3168445D01*
X-1411692Y-3219638D01*
X-1425500Y-3289054D01*
X-1425500Y-3560945D01*
X-1411693Y-3630361D01*
X-1355723Y-3714126D01*
X-1357908Y-3715585D01*
X-1343652Y-3750000D01*
X-1357908Y-3784414D01*
X-1355723Y-3785874D01*
X-1411693Y-3869638D01*
X-1425500Y-3939054D01*
X-1425500Y-4210945D01*
X-1574500Y-4210945D01*
X-1574500Y-3939055D01*
X-1574501Y-3939054D01*
X-1588308Y-3869638D01*
X-1644277Y-3785874D01*
X-1642093Y-3784414D01*
X-1656348Y-3750000D01*
X-1642093Y-3715585D01*
X-1644277Y-3714126D01*
X-1588308Y-3630361D01*
X-1574501Y-3560945D01*
X-1574500Y-3560945D01*
X-1574500Y-3289055D01*
X-1574501Y-3289054D01*
X-1584581Y-3238376D01*
X-1575399Y-3192211D01*
X-1558428Y-3175241D01*
X-1552793Y-3171476D01*
X-1472108Y-3090789D01*
X-1428624Y-3072778D01*
X-1422905Y-3075146D01*
X-1426041Y-3059379D01*
X-1409211Y-3027892D01*
X-1328885Y-2947566D01*
X-1322330Y-2938726D01*
X-1281957Y-2914530D01*
X-1260936Y-2915046D01*
X-1210896Y-2924999D01*
X-1210895Y-2925000D01*
X-1150000Y-2925000D01*
X-1150000Y-2650000D01*
X-1000000Y-2650000D01*
X-1000000Y-2925000D01*
X-939105Y-2925000D01*
X-939105Y-2924999D01*
X-869833Y-2911220D01*
X-786236Y-2855363D01*
X-784888Y-2857380D01*
X-750000Y-2842930D01*
X-715113Y-2857380D01*
X-713764Y-2855363D01*
X-630168Y-2911220D01*
X-560896Y-2924999D01*
X-560895Y-2925000D01*
X-500000Y-2925000D01*
X-500000Y-2650000D01*
X-1000000Y-2650000D01*
X-1150000Y-2650000D01*
X-1150000Y-2000000D01*
X-1000000Y-2000000D01*
X-1000000Y-2500000D01*
X-500000Y-2500000D01*
X-500000Y-2000000D01*
X-1000000Y-2000000D01*
X-1150000Y-2000000D01*
X-1150000Y-1911500D01*
X-1131987Y-1868013D01*
X-1088500Y-1850000D01*
X-411500Y-1850000D01*
X-368013Y-1868013D01*
X-350000Y-1911500D01*
X-350000Y-2925000D01*
X-289105Y-2925000D01*
X-289105Y-2924999D01*
X-219839Y-2911222D01*
X-217037Y-2910061D01*
X-214000Y-2910060D01*
X-213891Y-2910039D01*
X-213887Y-2910060D01*
X-169967Y-2910054D01*
X-150005Y-2923390D01*
X-141843Y-2931553D01*
X-141158Y-2932011D01*
X-131846Y-2939654D01*
X-53056Y-3018444D01*
X-53049Y-3018450D01*
X-38864Y-3028970D01*
X-24365Y-3044197D01*
X-18448Y-3053051D01*
X-18445Y-3053055D01*
X53239Y-3124739D01*
X58576Y-3131082D01*
X58598Y-3131065D01*
X60006Y-3132781D01*
X60034Y-3132814D01*
X60038Y-3132819D01*
X79340Y-3156340D01*
X93003Y-3201383D01*
X88620Y-3218883D01*
X88308Y-3219634D01*
X74500Y-3289054D01*
X74500Y-3560945D01*
X88307Y-3630361D01*
X144277Y-3714126D01*
X142092Y-3715585D01*
X156348Y-3750000D01*
X142092Y-3784414D01*
X144277Y-3785874D01*
X88307Y-3869638D01*
X74500Y-3939054D01*
X74500Y-4210945D01*
X88307Y-4280361D01*
X100000Y-4297860D01*
X140911Y-4359089D01*
X200022Y-4398585D01*
X219638Y-4411692D01*
X274946Y-4422692D01*
X289054Y-4425499D01*
X289055Y-4425500D01*
X289058Y-4425500D01*
X560945Y-4425500D01*
X560945Y-4425499D01*
X588786Y-4419961D01*
X630361Y-4411692D01*
X630362Y-4411691D01*
X630363Y-4411691D01*
X709089Y-4359089D01*
X709089Y-4359088D01*
X714126Y-4355723D01*
X715585Y-4357907D01*
X750000Y-4343652D01*
X784414Y-4357907D01*
X785874Y-4355723D01*
X790910Y-4359088D01*
X790911Y-4359089D01*
X800500Y-4365496D01*
X869638Y-4411692D01*
X924946Y-4422692D01*
X939054Y-4425499D01*
X939055Y-4425500D01*
X939058Y-4425500D01*
X1210945Y-4425500D01*
X1210945Y-4425499D01*
X1238786Y-4419961D01*
X1280361Y-4411692D01*
X1280362Y-4411691D01*
X1280363Y-4411691D01*
X1359089Y-4359089D01*
X1411691Y-4280363D01*
X1411691Y-4280362D01*
X1411692Y-4280361D01*
X1425499Y-4210945D01*
X1425500Y-4210945D01*
X1425500Y-3939055D01*
X1425499Y-3939054D01*
X1411692Y-3869638D01*
X1355723Y-3785874D01*
X1357907Y-3784414D01*
X1343652Y-3750000D01*
X1357907Y-3715585D01*
X1355723Y-3714126D01*
X1411692Y-3630361D01*
X1425499Y-3560945D01*
X1425500Y-3560945D01*
X1425500Y-3289056D01*
X1415522Y-3238896D01*
X1424704Y-3192730D01*
X1441672Y-3175762D01*
X1447649Y-3171769D01*
X1526412Y-3093003D01*
X1569898Y-3074990D01*
X1577703Y-3078222D01*
X1573956Y-3059381D01*
X1590784Y-3027895D01*
X1671114Y-2947568D01*
X1677671Y-2938727D01*
X1718044Y-2914530D01*
X1739066Y-2915046D01*
X1789106Y-2925000D01*
X1850000Y-2925000D01*
X1850000Y-2650000D01*
X2000000Y-2650000D01*
X2000000Y-2925000D01*
X2060895Y-2925000D01*
X2060895Y-2924999D01*
X2130167Y-2911220D01*
X2213764Y-2855363D01*
X2215112Y-2857380D01*
X2250000Y-2842930D01*
X2284887Y-2857380D01*
X2286236Y-2855363D01*
X2369832Y-2911220D01*
X2439104Y-2924999D01*
X2439105Y-2925000D01*
X2500000Y-2925000D01*
X2500000Y-2650000D01*
X2000000Y-2650000D01*
X1850000Y-2650000D01*
X1850000Y-2000000D01*
X2000000Y-2000000D01*
X2000000Y-2500000D01*
X2500000Y-2500000D01*
X2500000Y-2000000D01*
X2000000Y-2000000D01*
X1850000Y-2000000D01*
X1850000Y-1911500D01*
X1868013Y-1868013D01*
X1911500Y-1850000D01*
X2588500Y-1850000D01*
X2631987Y-1868013D01*
X2650000Y-1911500D01*
X2650000Y-2875724D01*
X2645319Y-2899259D01*
X2642434Y-2906222D01*
X2642432Y-2906229D01*
X2641228Y-2912280D01*
X2637731Y-2923806D01*
X2623998Y-2956961D01*
X2623996Y-2956967D01*
X2614061Y-3006905D01*
X2614061Y-3013000D01*
X2596048Y-3056487D01*
X2552561Y-3074500D01*
X2439055Y-3074500D01*
X2369638Y-3088307D01*
X2307325Y-3129944D01*
X2290911Y-3140911D01*
X2290910Y-3140911D01*
X2285874Y-3144277D01*
X2284414Y-3142092D01*
X2250000Y-3156348D01*
X2215585Y-3142092D01*
X2214126Y-3144277D01*
X2209089Y-3140911D01*
X2179334Y-3121030D01*
X2130361Y-3088307D01*
X2060945Y-3074500D01*
X2060942Y-3074500D01*
X1789058Y-3074500D01*
X1789055Y-3074500D01*
X1719638Y-3088307D01*
X1668441Y-3122516D01*
X1628870Y-3130386D01*
X1631399Y-3136489D01*
X1621035Y-3170657D01*
X1588308Y-3219638D01*
X1574500Y-3289054D01*
X1574500Y-3560945D01*
X1588307Y-3630361D01*
X1644277Y-3714126D01*
X1642092Y-3715585D01*
X1656348Y-3750000D01*
X1642092Y-3784414D01*
X1644277Y-3785874D01*
X1588307Y-3869638D01*
X1574500Y-3939054D01*
X1574500Y-4210945D01*
X1588307Y-4280361D01*
X1600000Y-4297860D01*
X1640911Y-4359089D01*
X1700022Y-4398585D01*
X1719638Y-4411692D01*
X1774946Y-4422692D01*
X1789054Y-4425499D01*
X1789055Y-4425500D01*
X1789058Y-4425500D01*
X2060945Y-4425500D01*
X2060945Y-4425499D01*
X2088786Y-4419961D01*
X2130361Y-4411692D01*
X2130362Y-4411691D01*
X2130363Y-4411691D01*
X2209089Y-4359089D01*
X2209089Y-4359088D01*
X2214126Y-4355723D01*
X2215585Y-4357907D01*
X2250000Y-4343652D01*
X2284414Y-4357907D01*
X2285874Y-4355723D01*
X2290910Y-4359088D01*
X2290911Y-4359089D01*
X2300500Y-4365496D01*
X2369638Y-4411692D01*
X2424946Y-4422692D01*
X2439054Y-4425499D01*
X2439055Y-4425500D01*
X2439058Y-4425500D01*
X2609323Y-4425500D01*
X2652810Y-4443513D01*
X2670823Y-4487000D01*
X2669888Y-4497682D01*
X2669479Y-4500000D01*
X2672242Y-4515670D01*
X2662053Y-4561624D01*
X2655164Y-4569835D01*
X2650000Y-4574999D01*
X2650000Y-4938500D01*
X2631987Y-4981987D01*
X2588500Y-5000000D01*
X1575000Y-5000000D01*
X1575000Y-5060895D01*
X1587951Y-5126002D01*
X1578769Y-5172167D01*
X1539631Y-5198318D01*
X1527633Y-5199500D01*
X1472877Y-5199500D01*
X1429390Y-5181487D01*
X1411377Y-5138000D01*
X1412559Y-5126002D01*
X1425499Y-5060945D01*
X1425500Y-5060945D01*
X1425500Y-4850000D01*
X1575000Y-4850000D01*
X1850000Y-4850000D01*
X1850000Y-4575000D01*
X2000000Y-4575000D01*
X2000000Y-4850000D01*
X2500000Y-4850000D01*
X2500000Y-4575000D01*
X2439105Y-4575000D01*
X2369832Y-4588779D01*
X2286236Y-4644637D01*
X2284887Y-4642619D01*
X2250000Y-4657070D01*
X2215112Y-4642619D01*
X2213764Y-4644637D01*
X2130167Y-4588779D01*
X2060895Y-4575000D01*
X2000000Y-4575000D01*
X1850000Y-4575000D01*
X1789105Y-4575000D01*
X1719832Y-4588779D01*
X1641272Y-4641272D01*
X1588779Y-4719832D01*
X1575000Y-4789104D01*
X1575000Y-4850000D01*
X1425500Y-4850000D01*
X1425500Y-4789055D01*
X1425499Y-4789054D01*
X1411692Y-4719638D01*
X1398585Y-4700022D01*
X1359089Y-4640911D01*
X1317384Y-4613045D01*
X1280361Y-4588307D01*
X1210945Y-4574500D01*
X1210942Y-4574500D01*
X939058Y-4574500D01*
X939055Y-4574500D01*
X869638Y-4588307D01*
X807035Y-4630137D01*
X790911Y-4640911D01*
X790910Y-4640911D01*
X785874Y-4644277D01*
X784414Y-4642092D01*
X750000Y-4656348D01*
X715585Y-4642092D01*
X714126Y-4644277D01*
X709089Y-4640911D01*
X667384Y-4613045D01*
X630361Y-4588307D01*
X560945Y-4574500D01*
X560942Y-4574500D01*
X289058Y-4574500D01*
X289055Y-4574500D01*
X219638Y-4588307D01*
X140911Y-4640911D01*
X88307Y-4719638D01*
X74500Y-4789054D01*
X74500Y-5060945D01*
X87441Y-5126002D01*
X78259Y-5172167D01*
X39121Y-5198318D01*
X27123Y-5199500D01*
X-27633Y-5199500D01*
X-71120Y-5181487D01*
X-89133Y-5138000D01*
X-87951Y-5126002D01*
X-75001Y-5060895D01*
X-75000Y-5060895D01*
X-75000Y-5000000D01*
X-1425000Y-5000000D01*
X-1425000Y-5060895D01*
X-1412049Y-5126002D01*
X-1421231Y-5172167D01*
X-1460369Y-5198318D01*
X-1472367Y-5199500D01*
X-1527123Y-5199500D01*
X-1570610Y-5181487D01*
X-1588623Y-5138000D01*
X-1587441Y-5126002D01*
X-1574501Y-5060945D01*
X-1574500Y-5060945D01*
X-1574500Y-4850000D01*
X-1425000Y-4850000D01*
X-1150000Y-4850000D01*
X-1150000Y-4575000D01*
X-1000000Y-4575000D01*
X-1000000Y-4850000D01*
X-500000Y-4850000D01*
X-500000Y-4575000D01*
X-350000Y-4575000D01*
X-350000Y-4850000D01*
X-75000Y-4850000D01*
X-75000Y-4789105D01*
X-75001Y-4789104D01*
X-88780Y-4719832D01*
X-141273Y-4641272D01*
X-219833Y-4588779D01*
X-289105Y-4575000D01*
X-350000Y-4575000D01*
X-500000Y-4575000D01*
X-560895Y-4575000D01*
X-630168Y-4588779D01*
X-713764Y-4644637D01*
X-715113Y-4642619D01*
X-750000Y-4657070D01*
X-784888Y-4642619D01*
X-786236Y-4644637D01*
X-869833Y-4588779D01*
X-939105Y-4575000D01*
X-1000000Y-4575000D01*
X-1150000Y-4575000D01*
X-1210895Y-4575000D01*
X-1280168Y-4588779D01*
X-1358728Y-4641272D01*
X-1411221Y-4719832D01*
X-1425000Y-4789104D01*
X-1425000Y-4850000D01*
X-1574500Y-4850000D01*
X-1574500Y-4789055D01*
X-1574501Y-4789054D01*
X-1588308Y-4719638D01*
X-1601415Y-4700022D01*
X-1640911Y-4640911D01*
X-1682616Y-4613045D01*
X-1719639Y-4588307D01*
X-1789055Y-4574500D01*
X-1789058Y-4574500D01*
X-2060942Y-4574500D01*
X-2060945Y-4574500D01*
X-2130362Y-4588307D01*
X-2192965Y-4630137D01*
X-2209089Y-4640911D01*
X-2209090Y-4640911D01*
X-2214126Y-4644277D01*
X-2215586Y-4642092D01*
X-2250000Y-4656348D01*
X-2284415Y-4642092D01*
X-2285874Y-4644277D01*
X-2290911Y-4640911D01*
X-2332616Y-4613045D01*
X-2369639Y-4588307D01*
X-2439055Y-4574500D01*
X-2439058Y-4574500D01*
X-2710942Y-4574500D01*
X-2710945Y-4574500D01*
X-2780362Y-4588307D01*
X-2859089Y-4640911D01*
X-2911693Y-4719638D01*
X-2925500Y-4789054D01*
X-2925500Y-5060945D01*
X-2912559Y-5126002D01*
X-2921741Y-5172167D01*
X-2960879Y-5198318D01*
X-2972877Y-5199500D01*
X-3027633Y-5199500D01*
X-3071120Y-5181487D01*
X-3089133Y-5138000D01*
X-3087951Y-5126002D01*
X-3075001Y-5060895D01*
X-3075000Y-5060895D01*
X-3075000Y-5000000D01*
X-3438500Y-5000000D01*
X-3481987Y-4981987D01*
X-3500000Y-4938500D01*
X-3500000Y-4575000D01*
X-3350000Y-4575000D01*
X-3350000Y-4850000D01*
X-3075000Y-4850000D01*
X-3075000Y-4789105D01*
X-3075001Y-4789104D01*
X-3088780Y-4719832D01*
X-3141273Y-4641272D01*
X-3219833Y-4588779D01*
X-3289105Y-4575000D01*
X-3350000Y-4575000D01*
X-3500000Y-4575000D01*
X-3560895Y-4575000D01*
X-3626002Y-4587950D01*
X-3672168Y-4578767D01*
X-3698318Y-4539630D01*
X-3699500Y-4527632D01*
X-3699500Y-4472877D01*
X-3681487Y-4429390D01*
X-3638000Y-4411377D01*
X-3626002Y-4412559D01*
X-3585274Y-4420660D01*
X-3560946Y-4425499D01*
X-3560945Y-4425500D01*
X-3560942Y-4425500D01*
X-3289055Y-4425500D01*
X-3289055Y-4425499D01*
X-3261214Y-4419961D01*
X-3219639Y-4411692D01*
X-3219638Y-4411691D01*
X-3219637Y-4411691D01*
X-3140911Y-4359089D01*
X-3088309Y-4280363D01*
X-3088309Y-4280362D01*
X-3088308Y-4280361D01*
X-3074501Y-4210945D01*
X-3074500Y-4210945D01*
X-3074500Y-3939055D01*
X-3074501Y-3939054D01*
X-3088308Y-3869638D01*
X-3144277Y-3785874D01*
X-3142093Y-3784414D01*
X-3156348Y-3750000D01*
X-3142093Y-3715585D01*
X-3144277Y-3714126D01*
X-3088308Y-3630361D01*
X-3074501Y-3560945D01*
X-3074500Y-3560945D01*
X-3074500Y-3289055D01*
X-3074501Y-3289054D01*
X-3084582Y-3238376D01*
X-3088309Y-3219637D01*
X-3121032Y-3170663D01*
X-3129426Y-3128463D01*
X-3136499Y-3131394D01*
X-3170666Y-3121030D01*
X-3219639Y-3088307D01*
X-3289055Y-3074500D01*
X-3289058Y-3074500D01*
X-3560942Y-3074500D01*
X-3560945Y-3074500D01*
X-3626002Y-3087440D01*
X-3672168Y-3078257D01*
X-3698318Y-3039120D01*
X-3699500Y-3027122D01*
X-3699500Y-2972367D01*
X-3681487Y-2928880D01*
X-3638000Y-2910867D01*
X-3626002Y-2912049D01*
X-3560896Y-2924999D01*
X-3560895Y-2925000D01*
X-3500000Y-2925000D01*
X-3500000Y-1575000D01*
X-3560895Y-1575000D01*
X-3626002Y-1587950D01*
X-3672168Y-1578767D01*
X-3698318Y-1539630D01*
X-3699500Y-1527632D01*
X-3699500Y-1472877D01*
X-3681487Y-1429390D01*
X-3638000Y-1411377D01*
X-3626002Y-1412559D01*
X-3579197Y-1421868D01*
X-3560946Y-1425499D01*
X-3560945Y-1425500D01*
X-3560942Y-1425500D01*
X-3289055Y-1425500D01*
X-3289055Y-1425499D01*
X-3219637Y-1411691D01*
X-3168452Y-1377490D01*
X-3131076Y-1370056D01*
X-3132874Y-1365715D01*
X-3122510Y-1331548D01*
X-3088309Y-1280363D01*
X-3074501Y-1210945D01*
X-3074500Y-1210945D01*
X-3074500Y-939055D01*
X-3074501Y-939054D01*
X-3088308Y-869638D01*
X-3144277Y-785874D01*
X-3142093Y-784414D01*
X-3156348Y-750000D01*
X-3142093Y-715585D01*
X-3144277Y-714126D01*
X-3088308Y-630361D01*
X-3074501Y-560945D01*
X-3074500Y-560945D01*
X-3074500Y-289055D01*
X-3074501Y-289054D01*
X-3088308Y-219638D01*
X-3104771Y-195000D01*
X-3140911Y-140911D01*
X-3187438Y-109823D01*
X-3219639Y-88307D01*
X-3289055Y-74500D01*
X-3289058Y-74500D01*
X-3560942Y-74500D01*
X-3560945Y-74500D01*
X-3626002Y-87440D01*
X-3672168Y-78257D01*
X-3698318Y-39120D01*
X-3699500Y-27122D01*
X-3699500Y27633D01*
X-3681487Y71120D01*
X-3638000Y89133D01*
X-3626002Y87951D01*
X-3560896Y75001D01*
X-3560895Y75000D01*
X-3500000Y75000D01*
X-3500000Y350000D01*
X-3350000Y350000D01*
X-3350000Y75000D01*
X-3289105Y75000D01*
X-3289105Y75001D01*
X-3219833Y88780D01*
X-3141273Y141273D01*
X-3088780Y219833D01*
X-3075001Y289105D01*
X-3075000Y289105D01*
X-3075000Y350000D01*
X-3350000Y350000D01*
X-3500000Y350000D01*
X-3500000Y1000000D01*
X-3350000Y1000000D01*
X-3350000Y500000D01*
X-3075000Y500000D01*
X-3075000Y560895D01*
X-3075001Y560896D01*
X-3088780Y630168D01*
X-3144637Y713764D01*
X-3142620Y715113D01*
X-3157070Y750000D01*
X-3142620Y784888D01*
X-3144637Y786236D01*
X-3088780Y869833D01*
X-3075001Y939105D01*
X-3075000Y939105D01*
X-3075000Y1000000D01*
X-3350000Y1000000D01*
X-3500000Y1000000D01*
X-3500000Y1425000D01*
X-3350000Y1425000D01*
X-3350000Y1150000D01*
X-3075000Y1150000D01*
X-3075000Y1210895D01*
X-3075001Y1210896D01*
X-3088780Y1280168D01*
X-3141273Y1358728D01*
X-3219833Y1411221D01*
X-3289105Y1425000D01*
X-3350000Y1425000D01*
X-3500000Y1425000D01*
X-3560895Y1425000D01*
X-3626002Y1412050D01*
X-3672168Y1421233D01*
X-3698318Y1460370D01*
X-3699500Y1472368D01*
X-3699500Y1527123D01*
X-3681487Y1570610D01*
X-3638000Y1588623D01*
X-3626002Y1587441D01*
X-3579197Y1578132D01*
X-3560946Y1574501D01*
X-3560945Y1574500D01*
X-3560942Y1574500D01*
X-3289055Y1574500D01*
X-3289055Y1574501D01*
X-3261214Y1580039D01*
X-3219639Y1588308D01*
X-3219638Y1588309D01*
X-3219637Y1588309D01*
X-3140911Y1640911D01*
X-3088309Y1719637D01*
X-3088309Y1719638D01*
X-3088308Y1719639D01*
X-3074501Y1789055D01*
X-3074500Y1789055D01*
X-3074500Y2060945D01*
X-3074501Y2060946D01*
X-3088308Y2130362D01*
X-3144277Y2214126D01*
X-3142093Y2215586D01*
X-3156348Y2250000D01*
X-3142093Y2284415D01*
X-3144277Y2285874D01*
X-3088308Y2369639D01*
X-3074501Y2439055D01*
X-3074500Y2439055D01*
X-3074500Y2710945D01*
X-3074501Y2710946D01*
X-3088308Y2780362D01*
X-3104771Y2805000D01*
X-3140911Y2859089D01*
X-3187438Y2890177D01*
X-3219639Y2911693D01*
X-3289055Y2925500D01*
X-3289058Y2925500D01*
X-3560942Y2925500D01*
X-3560945Y2925500D01*
X-3626002Y2912560D01*
X-3672168Y2921743D01*
X-3698318Y2960880D01*
X-3699500Y2972878D01*
X-3699500Y3027633D01*
X-3681487Y3071120D01*
X-3638000Y3089133D01*
X-3626002Y3087951D01*
X-3560896Y3075001D01*
X-3560895Y3075000D01*
X-3500000Y3075000D01*
X-3500000Y3350000D01*
X-3350000Y3350000D01*
X-3350000Y3075000D01*
X-3289105Y3075000D01*
X-3289105Y3075001D01*
X-3219833Y3088780D01*
X-3141273Y3141273D01*
X-3088780Y3219833D01*
X-3075001Y3289105D01*
X-3075000Y3289105D01*
X-3075000Y3350000D01*
X-3350000Y3350000D01*
X-3500000Y3350000D01*
X-3500000Y4000000D01*
X-3350000Y4000000D01*
X-3350000Y3500000D01*
X-3075000Y3500000D01*
X-3075000Y3560895D01*
X-3075001Y3560896D01*
X-3088780Y3630168D01*
X-3144637Y3713764D01*
X-3142620Y3715113D01*
X-3157070Y3750000D01*
X-3142620Y3784888D01*
X-3144637Y3786236D01*
X-3088780Y3869833D01*
X-3075001Y3939105D01*
X-3075000Y3939105D01*
X-3075000Y4000000D01*
X-3350000Y4000000D01*
X-3500000Y4000000D01*
X-3500000Y4088500D01*
X-3481987Y4131987D01*
X-3438500Y4150000D01*
X-3124274Y4150000D01*
X-3100741Y4145320D01*
G37*
%TD.AperFunction*%
%TD*%
%TA.AperFunction,Conductor*%
%TO.N,/DIN*%
G36*
X-2929390Y5181487D02*
G01*
X-2911377Y5138000D01*
X-2912559Y5126002D01*
X-2925500Y5060946D01*
X-2925500Y4789055D01*
X-2911693Y4719639D01*
X-2901912Y4705001D01*
X-2859089Y4640911D01*
X-2823570Y4617179D01*
X-2797419Y4578042D01*
X-2797694Y4552734D01*
X-2799651Y4543906D01*
X-2800538Y4503199D01*
X-2800756Y4499191D01*
X-2800828Y4498377D01*
X-2800771Y4496655D01*
X-2800752Y4493326D01*
X-2800759Y4493007D01*
X-2800759Y4492996D01*
X-2794903Y4459794D01*
X-2794692Y4458519D01*
X-2792780Y4446099D01*
X-2803970Y4400379D01*
X-2819397Y4385611D01*
X-2859089Y4359090D01*
X-2911694Y4280359D01*
X-2912738Y4277839D01*
X-2914665Y4275913D01*
X-2915056Y4275327D01*
X-2915173Y4275405D01*
X-2946025Y4244559D01*
X-2993091Y4244562D01*
X-3008983Y4251145D01*
X-3037604Y4263000D01*
X-3037605Y4263000D01*
X-3043835Y4263000D01*
X-3087322Y4281013D01*
X-3094971Y4290333D01*
X-3098089Y4295000D01*
X-3140911Y4359089D01*
X-3180605Y4385611D01*
X-3219639Y4411693D01*
X-3289055Y4425500D01*
X-3289058Y4425500D01*
X-3560942Y4425500D01*
X-3560945Y4425500D01*
X-3626002Y4412560D01*
X-3672168Y4421743D01*
X-3698318Y4460880D01*
X-3699500Y4472878D01*
X-3699500Y4527633D01*
X-3681487Y4571120D01*
X-3638000Y4589133D01*
X-3626002Y4587951D01*
X-3560896Y4575001D01*
X-3560895Y4575000D01*
X-3500000Y4575000D01*
X-3500000Y4850000D01*
X-3350000Y4850000D01*
X-3350000Y4575000D01*
X-3289105Y4575000D01*
X-3289105Y4575001D01*
X-3219833Y4588780D01*
X-3141273Y4641273D01*
X-3088780Y4719833D01*
X-3075001Y4789105D01*
X-3075000Y4789105D01*
X-3075000Y4850000D01*
X-3350000Y4850000D01*
X-3500000Y4850000D01*
X-3500000Y4938500D01*
X-3481987Y4981987D01*
X-3438500Y5000000D01*
X-3075000Y5000000D01*
X-3075000Y5060895D01*
X-3075001Y5060896D01*
X-3087951Y5126002D01*
X-3078769Y5172167D01*
X-3039631Y5198318D01*
X-3027633Y5199500D01*
X-2972877Y5199500D01*
X-2929390Y5181487D01*
G37*
%TD.AperFunction*%
%TD*%
M02*
