%TF.GenerationSoftware,KiCad,Pcbnew,8.0.0*%
%TF.CreationDate,2024-10-15T00:42:55+02:00*%
%TF.ProjectId,reDOT_RGB,7265444f-545f-4524-9742-2e6b69636164,rev?*%
%TF.SameCoordinates,Original*%
%TF.FileFunction,Legend,Bot*%
%TF.FilePolarity,Positive*%
%FSLAX46Y46*%
G04 Gerber Fmt 4.6, Leading zero omitted, Abs format (unit mm)*
G04 Created by KiCad (PCBNEW 8.0.0) date 2024-10-15 00:42:55*
%MOMM*%
%LPD*%
G01*
G04 APERTURE LIST*
G04 Aperture macros list*
%AMRoundRect*
0 Rectangle with rounded corners*
0 $1 Rounding radius*
0 $2 $3 $4 $5 $6 $7 $8 $9 X,Y pos of 4 corners*
0 Add a 4 corners polygon primitive as box body*
4,1,4,$2,$3,$4,$5,$6,$7,$8,$9,$2,$3,0*
0 Add four circle primitives for the rounded corners*
1,1,$1+$1,$2,$3*
1,1,$1+$1,$4,$5*
1,1,$1+$1,$6,$7*
1,1,$1+$1,$8,$9*
0 Add four rect primitives between the rounded corners*
20,1,$1+$1,$2,$3,$4,$5,0*
20,1,$1+$1,$4,$5,$6,$7,0*
20,1,$1+$1,$6,$7,$8,$9,0*
20,1,$1+$1,$8,$9,$2,$3,0*%
%AMFreePoly0*
4,1,14,0.385355,0.085355,0.400000,0.050000,0.400000,0.000711,0.385355,-0.034644,0.334644,-0.085355,0.299289,-0.100000,-0.350000,-0.100000,-0.385355,-0.085355,-0.400000,-0.050000,-0.400000,0.050000,-0.385355,0.085355,-0.350000,0.100000,0.350000,0.100000,0.385355,0.085355,0.385355,0.085355,$1*%
%AMFreePoly1*
4,1,14,0.334644,0.085355,0.385355,0.034644,0.400000,-0.000711,0.400000,-0.050000,0.385355,-0.085355,0.350000,-0.100000,-0.350000,-0.100000,-0.385355,-0.085355,-0.400000,-0.050000,-0.400000,0.050000,-0.385355,0.085355,-0.350000,0.100000,0.299289,0.100000,0.334644,0.085355,0.334644,0.085355,$1*%
%AMFreePoly2*
4,1,14,0.085355,0.385355,0.100000,0.350000,0.100000,-0.350000,0.085355,-0.385355,0.050000,-0.400000,0.000711,-0.400000,-0.034644,-0.385355,-0.085355,-0.334644,-0.100000,-0.299289,-0.100000,0.350000,-0.085355,0.385355,-0.050000,0.400000,0.050000,0.400000,0.085355,0.385355,0.085355,0.385355,$1*%
%AMFreePoly3*
4,1,14,0.085355,0.385355,0.100000,0.350000,0.100000,-0.299289,0.085355,-0.334644,0.034644,-0.385355,-0.000711,-0.400000,-0.050000,-0.400000,-0.085355,-0.385355,-0.100000,-0.350000,-0.100000,0.350000,-0.085355,0.385355,-0.050000,0.400000,0.050000,0.400000,0.085355,0.385355,0.085355,0.385355,$1*%
%AMFreePoly4*
4,1,14,0.385355,0.085355,0.400000,0.050000,0.400000,-0.050000,0.385355,-0.085355,0.350000,-0.100000,-0.350000,-0.100000,-0.385355,-0.085355,-0.400000,-0.050000,-0.400000,-0.000711,-0.385355,0.034644,-0.334644,0.085355,-0.299289,0.100000,0.350000,0.100000,0.385355,0.085355,0.385355,0.085355,$1*%
%AMFreePoly5*
4,1,14,0.385355,0.085355,0.400000,0.050000,0.400000,-0.050000,0.385355,-0.085355,0.350000,-0.100000,-0.299289,-0.100000,-0.334644,-0.085355,-0.385355,-0.034644,-0.400000,0.000711,-0.400000,0.050000,-0.385355,0.085355,-0.350000,0.100000,0.350000,0.100000,0.385355,0.085355,0.385355,0.085355,$1*%
%AMFreePoly6*
4,1,14,0.034644,0.385355,0.085355,0.334644,0.100000,0.299289,0.100000,-0.350000,0.085355,-0.385355,0.050000,-0.400000,-0.050000,-0.400000,-0.085355,-0.385355,-0.100000,-0.350000,-0.100000,0.350000,-0.085355,0.385355,-0.050000,0.400000,-0.000711,0.400000,0.034644,0.385355,0.034644,0.385355,$1*%
%AMFreePoly7*
4,1,14,0.085355,0.385355,0.100000,0.350000,0.100000,-0.350000,0.085355,-0.385355,0.050000,-0.400000,-0.050000,-0.400000,-0.085355,-0.385355,-0.100000,-0.350000,-0.100000,0.299289,-0.085355,0.334644,-0.034644,0.385355,0.000711,0.400000,0.050000,0.400000,0.085355,0.385355,0.085355,0.385355,$1*%
G04 Aperture macros list end*
%ADD10C,0.200000*%
%ADD11C,0.120000*%
%ADD12R,3.000000X1.000000*%
%ADD13R,1.800000X0.800000*%
%ADD14R,1.700000X1.800000*%
%ADD15RoundRect,0.125000X0.175000X-0.125000X0.175000X0.125000X-0.175000X0.125000X-0.175000X-0.125000X0*%
%ADD16FreePoly0,90.000000*%
%ADD17RoundRect,0.050000X0.050000X-0.350000X0.050000X0.350000X-0.050000X0.350000X-0.050000X-0.350000X0*%
%ADD18FreePoly1,90.000000*%
%ADD19FreePoly2,90.000000*%
%ADD20RoundRect,0.050000X0.350000X-0.050000X0.350000X0.050000X-0.350000X0.050000X-0.350000X-0.050000X0*%
%ADD21FreePoly3,90.000000*%
%ADD22FreePoly4,90.000000*%
%ADD23FreePoly5,90.000000*%
%ADD24FreePoly6,90.000000*%
%ADD25FreePoly7,90.000000*%
%ADD26R,1.700000X1.700000*%
%ADD27RoundRect,0.125000X-0.175000X0.125000X-0.175000X-0.125000X0.175000X-0.125000X0.175000X0.125000X0*%
%ADD28C,1.000000*%
G04 APERTURE END LIST*
D10*
%TO.C,C3*%
X-2700000Y300000D02*
G75*
G02*
X-2900000Y300000I-100000J0D01*
G01*
X-2900000Y300000D02*
G75*
G02*
X-2700000Y300000I100000J0D01*
G01*
D11*
%TO.C,U6*%
X-1610000Y3010000D02*
X-1160000Y3010000D01*
X-1610000Y2560000D02*
X-1610000Y3010000D01*
X-1610000Y240000D02*
X-1610000Y-210000D01*
X-1610000Y-210000D02*
X-1160000Y-210000D01*
X1610000Y3010000D02*
X1160000Y3010000D01*
X1610000Y2560000D02*
X1610000Y3010000D01*
X1610000Y240000D02*
X1610000Y-210000D01*
D10*
%TO.C,C1*%
X-2700000Y2300000D02*
G75*
G02*
X-2900000Y2300000I-100000J0D01*
G01*
X-2900000Y2300000D02*
G75*
G02*
X-2700000Y2300000I100000J0D01*
G01*
%TO.C,C2*%
X2900000Y2300000D02*
G75*
G02*
X2700000Y2300000I-100000J0D01*
G01*
X2700000Y2300000D02*
G75*
G02*
X2900000Y2300000I100000J0D01*
G01*
%TD*%
%LPC*%
D12*
%TO.C,J1*%
X2200000Y-1130000D03*
X-2200000Y-1130000D03*
X2200000Y-3670000D03*
X-2200000Y-3670000D03*
%TD*%
D13*
%TO.C,TP2*%
X2800000Y-4800000D03*
%TD*%
D14*
%TO.C,J2*%
X-2540000Y4300000D03*
X0Y4300000D03*
X2540000Y4300000D03*
%TD*%
D15*
%TO.C,C3*%
X-2800000Y-200000D03*
X-2800000Y800000D03*
%TD*%
D16*
%TO.C,U6*%
X800000Y-50000D03*
D17*
X400000Y-50000D03*
X0Y-50000D03*
X-400000Y-50000D03*
D18*
X-800000Y-50000D03*
D19*
X-1450000Y600000D03*
D20*
X-1450000Y1000000D03*
X-1450000Y1400000D03*
X-1450000Y1800000D03*
D21*
X-1450000Y2200000D03*
D22*
X-800000Y2850000D03*
D17*
X-400000Y2850000D03*
X0Y2850000D03*
X400000Y2850000D03*
D23*
X800000Y2850000D03*
D24*
X1450000Y2200000D03*
D20*
X1450000Y1800000D03*
X1450000Y1400000D03*
X1450000Y1000000D03*
D25*
X1450000Y600000D03*
D26*
X0Y1400000D03*
%TD*%
D27*
%TO.C,C1*%
X-2800000Y2800000D03*
X-2800000Y1800000D03*
%TD*%
D28*
%TO.C,TP1*%
X2800000Y850000D03*
%TD*%
D15*
%TO.C,C2*%
X2800000Y1800000D03*
X2800000Y2800000D03*
%TD*%
%LPD*%
M02*
